<?xml version="1.0" encoding="utf-8"?>
<!-- Generator: Adobe Illustrator 27.5.0, SVG Export Plug-In . SVG Version: 6.00 Build 0)  -->
<svg version="1.1" xmlns="http://www.w3.org/2000/svg" xmlns:xlink="http://www.w3.org/1999/xlink" x="0px" y="0px"
	 viewBox="0 0 750 500" style="enable-background:new 0 0 750 500;" xml:space="preserve">
<g id="BACKGROUND">
	<rect id="BACKGROUND_1_" style="fill:#FFFFFF;" width="750" height="500"/>
</g>
<g id="OBJECTS">
	<g>
		<g>
			<g>
				<path style="fill:#B3D2E6;" d="M28.02,345.234c1.269,2.288,2.571,4.568,3.919,6.82c0.332,0.571,0.671,1.131,1.02,1.698
					c2.733,4.513,5.646,8.932,8.771,13.171c0.385,0.532,0.786,1.061,1.185,1.581c3.039,4.014,6.289,7.849,9.789,11.434
					c0.48,0.493,0.969,0.984,1.466,1.473c2.802,2.757,5.77,5.363,8.91,7.763c1.581,1.211,3.2,2.36,4.854,3.466
					c0.651,0.436,1.3,0.864,1.966,1.288c0.678,0.439,1.372,0.874,2.065,1.3c3.837,2.353,7.753,4.592,11.745,6.709
					c0.689,0.375,1.385,0.74,2.079,1.096c4.536,2.35,9.145,4.561,13.821,6.608c0.771,0.348,1.548,0.685,2.323,1.014
					c4.462,1.912,8.979,3.69,13.52,5.339c3.129,1.135,6.285,2.202,9.462,3.203c0.916,0.297,1.839,0.583,2.768,0.859
					c3.777,1.143,7.588,2.2,11.418,3.155c1.568,0.392,13.445,2.349,19.288,3.576c1.453,0.313,2.538,0.58,2.991,0.764
					c0.144,0.054,0.225,0.106,0.235,0.147c-2.016-12.538-7.179-24.353-14.029-35.098c-0.616-0.969-1.247-1.926-1.884-2.872
					c-1.56-2.299-3.189-4.557-4.884-6.755c-1.979-2.562-4.065-5.134-6.27-7.687c-0.629-0.721-1.258-1.442-1.904-2.159
					c-4.173-4.689-8.718-9.284-13.56-13.654c-0.784-0.712-1.587-1.428-2.403-2.123c-5.331-4.633-11.002-8.952-16.936-12.782
					c-0.884-0.575-1.775-1.14-2.669-1.686c-4.193-2.569-8.502-4.883-12.904-6.88c-0.774-0.364-1.551-0.701-2.328-1.039
					c-5.493-2.331-11.128-4.175-16.845-5.388c-0.716-0.15-1.431-0.292-2.144-0.425c-4.447-0.823-8.937-1.26-13.458-1.261
					c-0.676-0.011-1.354,0.005-2.041,0.023c-7.446,0.207-14.954,1.627-22.417,4.496c-0.217,0.085-0.44,0.18-0.64,0.296
					c-0.184,0.112-0.346,0.246-0.461,0.429c-0.25,0.398-0.216,0.924-0.142,1.397l0.006,0.025
					C24.3,338.369,26.141,341.854,28.02,345.234z"/>
			</g>
			<path style="fill:#C9E4F5;" d="M158.394,426.79c-3.564-4.585-7.286-9.008-11.18-13.307c-0.317-0.349-0.651-0.69-0.972-1.048
				c-6.251,2.398-12.436,4.942-18.557,7.621c-0.932-0.273-1.849-0.563-2.772-0.862c6.58-2.926,13.222-5.671,19.935-8.262
				c-3.282-3.503-6.665-6.915-10.155-10.2c-11.566,0.667-22.377,4.953-32.76,9.922c-0.769-0.326-1.556-0.666-2.324-1.015
				c10.538-5.086,21.463-9.601,33.167-10.684c-3.836-3.532-7.774-6.951-11.827-10.239c-7.631,1.683-14.83,4.797-21.919,8.026
				c-4.456,2.016-8.86,4.118-13.24,6.297c-0.697-0.36-1.384-0.724-2.076-1.097c4.88-2.456,9.806-4.811,14.782-7.058
				c6.668-3.022,13.439-5.938,20.558-7.68c-3.333-2.663-6.736-5.239-10.194-7.745l-0.031,0.004
				c-4.375,0.931-8.566,2.448-12.715,4.079c-4.186,1.648-8.363,3.313-12.544,4.97c-4.557,1.798-9.109,3.605-13.671,5.416
				c-0.659-0.421-1.313-0.856-1.967-1.291c9.717-3.888,19.425-7.793,29.2-11.531c3.175-1.211,6.379-2.314,9.673-3.128
				c-4.657-3.305-9.425-6.47-14.255-9.508c-8.604,1.441-16.741,4.671-24.842,7.764c-4.51,1.732-9.011,3.46-13.539,5.179
				c-0.492-0.488-0.983-0.977-1.466-1.469c4.827-1.857,9.649-3.702,14.484-5.541c7.513-2.863,15.038-5.843,22.936-7.429
				c-5.835-3.585-11.782-6.985-17.832-10.227c-0.024,0.044-0.051,0.079-0.084,0.127c-0.698,0.776-2.29,1.075-3.254,1.446
				c-2.502,0.975-5,1.96-7.511,2.939c-4.945,1.935-9.891,3.869-14.836,5.804c-1.231,0.484-2.452,0.963-3.687,1.438
				c-0.406-0.517-0.807-1.048-1.185-1.577c5.149-2.018,10.293-4.023,15.433-6.037c2.371-0.926,4.746-1.864,7.121-2.781
				c1.194-0.467,2.38-0.93,3.561-1.401c0.534-0.204,1.054-0.413,1.579-0.612c0.231-0.096,0.544-0.253,0.801-0.317l0.18-0.04
				c-3.557-1.887-7.137-3.729-10.75-5.502c-1.421-0.685-2.847-1.356-4.277-2.037c-7.543,1.565-15.032,3.414-22.426,5.56
				c-0.342-0.569-0.679-1.129-1.012-1.702c6.799-1.98,13.672-3.73,20.6-5.218c-8.565-4.003-17.268-7.732-26.063-11.21
				c-0.924-0.375-1.854-0.738-2.783-1.1c-0.076-0.472-0.11-0.996,0.147-1.392c0.113-0.185,0.269-0.323,0.451-0.43
				c10.136,3.967,20.157,8.231,29.993,12.856c-2.297-5.891-4.603-11.777-6.936-17.651c0.689-0.012,1.375-0.032,2.041-0.022
				c2.483,6.245,4.94,12.503,7.374,18.76l0.02,0.09c4.476,2.132,8.899,4.366,13.299,6.666c-0.151-0.514-0.284-1.037-0.434-1.552
				c-0.336-1.222-0.673-2.422-1.019-3.64c-0.682-2.418-1.387-4.836-2.11-7.246c-1.175-3.953-2.41-7.889-3.662-11.818
				c0.712,0.132,1.419,0.278,2.14,0.428c2.667,8.277,5.176,16.617,7.396,25.024c5.53,2.954,10.999,6.037,16.365,9.277
				c0.704,0.423,1.394,0.863,2.088,1.29c-2.906-10.096-5.902-20.172-9.002-30.21c0.778,0.344,1.551,0.68,2.328,1.046
				c3.136,10.187,6.168,20.412,9.11,30.656c4.655,2.92,9.234,5.964,13.738,9.13c-2.553-11.186-5.871-22.193-9.949-32.913
				c0.897,0.554,1.785,1.111,2.672,1.691c3.948,10.725,7.173,21.72,9.618,32.89c3.165,2.278,6.279,4.613,9.338,7.018
				c0.385,0.306,0.761,0.617,1.142,0.914c-0.071-9.429-1.126-18.841-3.162-28.039c0.817,0.69,1.615,1.411,2.409,2.122
				c1.818,9.036,2.718,18.233,2.683,27.457c4.172,3.376,8.241,6.888,12.195,10.531c-0.964-8.076-1.416-16.214-1.322-24.34
				c0.646,0.725,1.274,1.437,1.898,2.161c0.001,8.093,0.531,16.162,1.59,24.182c3.25,3.077,6.443,6.246,9.513,9.506
				c0.191,0.198,0.36,0.395,0.547,0.584c-0.429-6.594-0.602-13.206-0.493-19.829c0.639,0.949,1.27,1.902,1.886,2.872
				c-0.037,6.16,0.171,12.326,0.609,18.464c0.009,0.161-0.054,0.334-0.157,0.492c4.685,5.122,9.132,10.466,13.345,15.996
				L158.394,426.79z"/>
		</g>
		<g>
			<g>
				<path style="fill:#C9E4F5;" d="M35.481,441.827c1.955,0.796,3.928,1.571,5.915,2.304c0.498,0.191,0.994,0.372,1.5,0.551
					c4.002,1.454,8.069,2.758,12.179,3.842c0.511,0.14,1.031,0.269,1.545,0.394c3.941,0.986,7.925,1.752,11.939,2.235
					c0.551,0.067,1.107,0.128,1.667,0.184c3.157,0.316,6.341,0.451,9.529,0.372c1.606-0.039,3.206-0.136,4.805-0.277
					c0.63-0.055,1.255-0.115,1.888-0.185c0.648-0.067,1.305-0.145,1.956-0.227c3.603-0.462,7.198-1.036,10.778-1.726
					c0.623-0.113,1.245-0.236,1.862-0.363c4.041-0.818,8.057-1.76,12.032-2.839c0.66-0.171,1.319-0.353,1.973-0.538
					c3.773-1.055,7.512-2.224,11.201-3.485c2.541-0.87,5.065-1.796,7.569-2.774c0.726-0.277,1.451-0.564,2.175-0.861
					c2.953-1.193,5.883-2.457,8.775-3.794c1.184-0.547,9.641-5.327,13.935-7.511c1.072-0.539,1.889-0.92,2.267-1.033
					c0.118-0.039,0.195-0.048,0.222-0.026c-7.612-6.862-16.836-11.677-26.579-14.966c-0.878-0.297-1.758-0.58-2.638-0.852
					c-2.144-0.656-4.311-1.251-6.488-1.776c-2.54-0.609-5.153-1.17-7.831-1.66c-0.76-0.135-1.521-0.27-2.289-0.394
					c-4.996-0.836-10.178-1.426-15.433-1.722c-0.853-0.051-1.72-0.094-2.585-0.119c-5.696-0.215-11.446-0.061-17.114,0.534
					c-0.847,0.086-1.692,0.181-2.531,0.291c-3.936,0.507-7.816,1.232-11.593,2.204c-0.671,0.163-1.33,0.344-1.989,0.525
					c-4.633,1.314-9.108,3.006-13.316,5.137c-0.526,0.268-1.047,0.541-1.563,0.817c-3.212,1.733-6.256,3.73-9.098,6.017
					c-0.43,0.335-0.849,0.688-1.271,1.047c-4.576,3.898-8.577,8.589-11.817,14.169c-0.093,0.163-0.185,0.335-0.253,0.51
					c-0.059,0.164-0.093,0.329-0.072,0.503c0.045,0.377,0.332,0.69,0.617,0.95l0.016,0.013
					C29.668,439.393,32.589,440.652,35.481,441.827z"/>
			</g>
			<path style="fill:#B3D2E6;" d="M158.708,427.128c-4.561-1.079-9.138-1.977-13.762-2.709c-0.376-0.059-0.758-0.104-1.141-0.167
				c-2.717,4.671-5.317,9.399-7.809,14.181c-0.724,0.3-1.448,0.582-2.179,0.861c2.656-5.169,5.442-10.255,8.352-15.281
				c-3.836-0.541-7.689-0.974-11.545-1.274c-6.934,6.272-11.561,14.436-15.574,22.814c-0.649,0.184-1.315,0.368-1.975,0.538
				c4.052-8.529,8.635-16.896,15.444-23.499c-4.199-0.28-8.404-0.436-12.616-0.452c-3.946,4.92-6.895,10.52-9.718,16.137
				c-1.781,3.522-3.486,7.072-5.137,10.658c-0.62,0.126-1.236,0.245-1.86,0.361c1.825-4.013,3.73-7.986,5.722-11.917
				c2.663-5.273,5.444-10.533,9.038-15.231c-3.443,0.012-6.885,0.115-10.327,0.289l-0.018,0.018
				c-2.28,2.799-4.146,5.874-5.929,8.998c-1.798,3.154-3.581,6.314-5.371,9.472c-1.955,3.436-3.902,6.875-5.853,10.322
				c-0.628,0.069-1.259,0.126-1.89,0.184c4.141-7.361,8.268-14.728,12.522-22.025c1.383-2.368,2.839-4.682,4.498-6.861
				c-4.6,0.279-9.199,0.702-13.772,1.236c-4.68,5.259-8.161,11.407-11.689,17.451c-1.959,3.371-3.914,6.735-5.891,10.106
				c-0.556-0.058-1.112-0.116-1.665-0.182c2.094-3.61,4.193-7.209,6.302-10.812c3.274-5.602,6.498-11.282,10.66-16.276
				c-5.482,0.699-10.941,1.57-16.385,2.594c0.007,0.04,0.008,0.076,0.011,0.123c-0.046,0.841-0.896,1.835-1.314,2.555
				c-1.079,1.879-2.151,3.762-3.234,5.648c-2.13,3.719-4.26,7.437-6.39,11.156c-0.529,0.927-1.054,1.846-1.59,2.77
				c-0.517-0.12-1.037-0.25-1.543-0.392c2.216-3.874,4.435-7.738,6.647-11.605c1.022-1.781,2.041-3.574,3.07-5.351
				c0.515-0.898,1.026-1.789,1.53-2.683c0.232-0.398,0.454-0.793,0.683-1.184c0.096-0.177,0.214-0.434,0.343-0.605l0.093-0.116
				c-3.19,0.613-6.374,1.267-9.542,1.981c-1.24,0.288-2.476,0.588-3.719,0.883c-3.95,4.801-7.722,9.752-11.285,14.843
				c-0.503-0.185-0.998-0.366-1.497-0.558c3.272-4.685,6.708-9.263,10.31-13.704c-7.41,1.818-14.768,3.876-22.056,6.141
				c-0.771,0.232-1.538,0.474-2.306,0.717c-0.286-0.258-0.573-0.571-0.612-0.949c-0.023-0.173,0.005-0.339,0.066-0.498
				c8.38-2.635,16.837-5.025,25.361-7.094c-4.425-2.541-8.853-5.075-13.292-7.587c0.428-0.356,0.848-0.716,1.272-1.047
				c4.721,2.669,9.432,5.36,14.128,8.062l0.058,0.047c3.893-0.924,7.804-1.758,11.733-2.538c-0.355-0.247-0.703-0.509-1.058-0.756
				c-0.83-0.598-1.649-1.182-2.482-1.772c-1.652-1.174-3.319-2.338-4.993-3.487c-2.739-1.89-5.507-3.74-8.282-5.576
				c0.515-0.277,1.033-0.544,1.562-0.814c5.865,3.854,11.662,7.827,17.312,11.989c4.971-0.941,9.969-1.77,14.982-2.448
				c0.656-0.09,1.313-0.163,1.966-0.246c-6.935-4.876-13.917-9.695-20.945-14.437c0.663-0.177,1.319-0.357,1.993-0.52
				c7.126,4.817,14.206,9.711,21.239,14.663c4.404-0.519,8.822-0.923,13.256-1.212c-7.265-5.741-14.92-10.981-22.908-15.657
				c0.844-0.106,1.684-0.204,2.535-0.289c7.909,4.745,15.5,10.025,22.689,15.81c3.143-0.169,6.282-0.277,9.422-0.313
				c0.397-0.002,0.79,0.003,1.18-0.003c-4.815-5.892-10.241-11.275-16.176-16.027c0.863,0.02,1.729,0.07,2.588,0.115
				c5.715,4.761,10.935,10.087,15.58,15.904c4.331,0.012,8.666,0.16,12.995,0.45c-4.692-4.59-9.094-9.477-13.147-14.633
				c0.773,0.129,1.528,0.258,2.287,0.399c4.096,5.087,8.512,9.891,13.236,14.398c3.6,0.29,7.211,0.667,10.79,1.163
				c0.22,0.028,0.426,0.066,0.639,0.09c-3.606-3.928-7.061-7.997-10.344-12.216c0.882,0.273,1.761,0.553,2.639,0.851
				c3.093,3.891,6.345,7.662,9.725,11.299c0.087,0.097,0.135,0.237,0.15,0.389c5.537,0.849,11.037,1.959,16.483,3.303
				L158.708,427.128z"/>
		</g>
		<g>
			<g>
				<path style="fill:#B3D2E6;" d="M607.369,232.03c-0.57,2.188-1.115,4.391-1.615,6.603c-0.132,0.555-0.255,1.108-0.375,1.67
					c-0.981,4.453-1.794,8.954-2.367,13.47c-0.077,0.562-0.141,1.132-0.201,1.696c-0.493,4.323-0.746,8.66-0.695,12.989
					c0.007,0.595,0.02,1.193,0.039,1.796c0.109,3.396,0.412,6.795,0.945,10.169c0.267,1.7,0.595,3.384,0.969,5.062
					c0.147,0.661,0.298,1.316,0.462,1.978c0.162,0.679,0.338,1.365,0.516,2.045c0.997,3.76,2.112,7.496,3.347,11.2
					c0.208,0.646,0.426,1.289,0.647,1.926c1.436,4.175,3.001,8.306,4.705,12.375c0.275,0.677,0.56,1.351,0.848,2.019
					c1.651,3.857,3.417,7.662,5.274,11.402c1.281,2.575,2.619,5.125,4.009,7.646c0.396,0.732,0.803,1.461,1.219,2.188
					c1.682,2.967,3.435,5.9,5.261,8.783c0.747,1.18,7.01,9.486,9.933,13.739c0.722,1.063,1.242,1.876,1.415,2.262
					c0.057,0.12,0.078,0.2,0.059,0.232c6.216-9.045,10.031-19.515,12.153-30.321c0.192-0.973,0.368-1.948,0.534-2.92
					c0.395-2.369,0.722-4.752,0.973-7.138c0.29-2.783,0.518-5.635,0.662-8.547c0.036-0.826,0.073-1.652,0.096-2.486
					c0.186-5.422,0.083-11.006-0.341-16.627c-0.066-0.913-0.141-1.84-0.237-2.761c-0.573-6.077-1.544-12.16-2.972-18.094
					c-0.21-0.887-0.43-1.771-0.665-2.647c-1.091-4.107-2.406-8.125-3.969-11.998c-0.267-0.689-0.552-1.364-0.837-2.038
					c-2.046-4.734-4.472-9.247-7.325-13.415c-0.359-0.521-0.721-1.036-1.087-1.544c-2.291-3.167-4.839-6.117-7.666-8.814
					c-0.416-0.41-0.85-0.804-1.29-1.202c-4.781-4.31-10.324-7.899-16.704-10.555c-0.186-0.076-0.382-0.15-0.577-0.197
					c-0.182-0.04-0.363-0.053-0.544-0.006c-0.394,0.1-0.686,0.449-0.922,0.789l-0.011,0.019
					C609.135,225.517,608.209,228.795,607.369,232.03z"/>
			</g>
			<path style="fill:#C9E4F5;" d="M640.292,360.789c0.504-4.993,0.814-9.98,0.941-14.991c0.01-0.407,0.004-0.82,0.017-1.235
				c-5.341-2.227-10.726-4.324-16.153-6.298c-0.42-0.726-0.821-1.455-1.22-2.192c5.861,2.093,11.652,4.337,17.397,6.719
				c0.036-4.148-0.046-8.3-0.27-12.436c-7.633-6.48-16.951-10.245-26.409-13.328c-0.287-0.663-0.576-1.344-0.849-2.021
				c9.625,3.103,19.151,6.793,27.118,13.094c-0.293-4.497-0.718-8.984-1.293-13.457c-5.778-3.498-12.137-5.842-18.497-8.05
				c-3.989-1.396-7.998-2.707-12.037-3.956c-0.221-0.64-0.434-1.278-0.644-1.924c4.517,1.374,9.003,2.838,13.456,4.4
				c5.973,2.086,11.948,4.3,17.44,7.454c-0.497-3.654-1.089-7.294-1.758-10.923l-0.022-0.017c-3.292-2.027-6.818-3.576-10.386-5.03
				c-3.601-1.465-7.207-2.914-10.81-4.371c-3.923-1.592-7.848-3.177-11.781-4.764c-0.161-0.657-0.311-1.319-0.461-1.981
				c8.396,3.362,16.798,6.708,25.142,10.199c2.709,1.136,5.37,2.356,7.916,3.811c-0.942-4.844-2.038-9.668-3.248-14.448
				c-6.242-4.229-13.258-7.061-20.169-9.957c-3.854-1.606-7.7-3.209-11.557-4.834c-0.016-0.599-0.033-1.197-0.041-1.793
				c4.127,1.716,8.243,3.438,12.364,5.171c6.407,2.689,12.891,5.313,18.777,9.029c-1.512-5.722-3.205-11.395-5.056-17.03
				c-0.041,0.013-0.079,0.019-0.129,0.029c-0.9,0.07-2.074-0.693-2.898-1.036c-2.147-0.882-4.296-1.755-6.451-2.64
				c-4.247-1.739-8.494-3.477-12.741-5.216c-1.058-0.431-2.109-0.86-3.164-1.299c0.055-0.566,0.12-1.136,0.199-1.693
				c4.424,1.808,8.838,3.621,13.254,5.426c2.035,0.835,4.081,1.664,6.113,2.507c1.026,0.42,2.043,0.837,3.063,1.247
				c0.455,0.191,0.906,0.371,1.353,0.558c0.202,0.077,0.491,0.166,0.69,0.279l0.136,0.083c-1.1-3.301-2.24-6.589-3.444-9.852
				c-0.48-1.276-0.972-2.546-1.461-3.825c-5.652-3.519-11.438-6.828-17.344-9.895c0.126-0.56,0.248-1.111,0.382-1.668
				c5.434,2.816,10.776,5.819,15.998,9.019c-2.971-7.611-6.191-15.134-9.619-22.553c-0.354-0.786-0.72-1.567-1.085-2.347
				c0.234-0.34,0.525-0.689,0.922-0.783c0.181-0.048,0.361-0.042,0.538,0c3.975,8.526,7.701,17.169,11.096,25.927
				c2.076-5.055,4.144-10.112,6.187-15.177c0.438,0.404,0.879,0.799,1.29,1.203c-2.17,5.387-4.365,10.767-6.574,16.132l-0.041,0.068
				c1.528,4.003,2.963,8.038,4.344,12.1c0.212-0.412,0.441-0.818,0.653-1.229c0.518-0.965,1.023-1.917,1.533-2.884
				c1.015-1.919,2.016-3.852,3-5.791c1.622-3.174,3.197-6.372,4.756-9.576c0.367,0.507,0.722,1.02,1.083,1.544
				c-3.267,6.768-6.671,13.481-10.295,20.064c1.698,5.146,3.281,10.335,4.705,15.561c0.188,0.684,0.357,1.371,0.537,2.052
				c4.202-8.048,8.337-16.138,12.384-24.266c0.281,0.679,0.565,1.35,0.832,2.043c-4.113,8.243-8.313,16.447-12.582,24.609
				c1.17,4.602,2.22,9.237,3.149,13.904c5.074-8.52,9.561-17.384,13.402-26.521c0.231,0.881,0.454,1.759,0.663,2.651
				c-3.926,9.063-8.465,17.864-13.596,26.31c0.621,3.313,1.177,6.63,1.656,9.958c0.058,0.421,0.108,0.84,0.169,1.253
				c5.578-5.94,10.531-12.457,14.742-19.426c0.1,0.919,0.169,1.845,0.241,2.764c-4.251,6.736-9.172,13.026-14.695,18.775
				c0.596,4.6,1.048,9.223,1.349,13.86c4.213-5.627,8.783-10.987,13.687-16.014c-0.029,0.839-0.06,1.659-0.102,2.484
				c-4.825,5.064-9.305,10.427-13.425,16.076c0.198,3.863,0.306,7.749,0.282,11.619c0.002,0.238-0.01,0.462-0.006,0.691
				c3.663-4.38,7.498-8.62,11.515-12.698c-0.166,0.975-0.34,1.947-0.533,2.922c-3.696,3.831-7.243,7.813-10.629,11.913
				c-0.091,0.106-0.233,0.177-0.392,0.214c-0.123,5.998-0.529,11.992-1.19,17.964L640.292,360.789z"/>
		</g>
		<g>
			<g>
				<path style="fill:#C9E4F5;" d="M725.151,284.349c-0.378,2.077-0.784,4.157-1.233,6.227c-0.107,0.522-0.22,1.038-0.341,1.562
					c-0.922,4.157-2.007,8.288-3.299,12.337c-0.156,0.506-0.326,1.014-0.497,1.515c-1.285,3.854-2.778,7.626-4.526,11.272
					c-0.24,0.501-0.487,1.003-0.74,1.505c-1.429,2.832-3.024,5.592-4.804,8.238c-0.895,1.334-1.836,2.631-2.814,3.905
					c-0.385,0.502-0.771,0.997-1.17,1.493c-0.405,0.511-0.823,1.023-1.242,1.528c-2.325,2.791-4.739,5.515-7.244,8.166
					c-0.43,0.465-0.868,0.924-1.306,1.375c-2.86,2.969-5.811,5.851-8.857,8.625c-0.499,0.465-1.006,0.924-1.513,1.376
					c-2.916,2.616-5.91,5.142-8.955,7.578c-2.098,1.676-4.235,3.308-6.405,4.895c-0.624,0.464-1.255,0.921-1.894,1.372
					c-2.592,1.85-5.232,3.643-7.913,5.365c-1.097,0.705-9.671,5.272-13.82,7.721c-1.03,0.615-1.79,1.099-2.089,1.358
					c-0.096,0.079-0.145,0.139-0.142,0.173c-1.701-10.106-0.809-20.473,1.649-30.459c0.22-0.9,0.455-1.794,0.698-2.683
					c0.598-2.161,1.26-4.308,1.986-6.427c0.85-2.47,1.78-4.976,2.805-7.498c0.294-0.714,0.589-1.428,0.897-2.143
					c1.977-4.664,4.263-9.352,6.835-13.944c0.415-0.747,0.844-1.502,1.288-2.244c2.878-4.92,6.096-9.688,9.641-14.15
					c0.527-0.668,1.062-1.33,1.605-1.979c2.541-3.048,5.236-5.932,8.085-8.596c0.498-0.479,1.005-0.937,1.511-1.396
					c3.596-3.202,7.427-6.069,11.484-8.475c0.509-0.3,1.018-0.593,1.529-0.88c3.187-1.779,6.506-3.274,9.961-4.444
					c0.514-0.183,1.036-0.346,1.566-0.51c5.745-1.767,11.852-2.623,18.299-2.36c0.188,0.009,0.383,0.024,0.566,0.061
					c0.17,0.038,0.328,0.098,0.463,0.209c0.294,0.24,0.404,0.65,0.47,1.031l0.002,0.021
					C726.219,278.139,725.712,281.279,725.151,284.349z"/>
			</g>
			<path style="fill:#B3D2E6;" d="M646.576,380.407c1.539-4.427,3.24-8.771,5.106-13.064c0.152-0.349,0.32-0.696,0.472-1.052
				c5.399,0.217,10.784,0.562,16.156,1.027c0.642-0.449,1.268-0.909,1.896-1.376c-5.786-0.535-11.573-0.916-17.375-1.161
				c1.603-3.527,3.307-7.01,5.125-10.423c9.014-2.481,18.387-2,27.609-0.887c0.504-0.448,1.017-0.912,1.514-1.377
				c-9.371-1.163-18.89-1.789-28.117,0.409c2.019-3.692,4.145-7.324,6.394-10.885c6.269-0.687,12.577-0.168,18.831,0.467
				c3.927,0.389,7.838,0.857,11.749,1.39c0.44-0.455,0.871-0.911,1.303-1.376c-4.365-0.615-8.74-1.142-13.125-1.573
				c-5.878-0.586-11.809-1.064-17.702-0.555c1.859-2.898,3.794-5.747,5.79-8.557l0.025-0.005c3.585-0.42,7.181-0.343,10.775-0.17
				c3.626,0.177,7.25,0.37,10.874,0.556c3.948,0.196,7.896,0.4,11.851,0.605c0.395-0.493,0.782-0.994,1.17-1.496
				c-8.433-0.459-16.865-0.935-25.304-1.264c-2.741-0.105-5.475-0.12-8.203,0.11c2.705-3.731,5.532-7.383,8.439-10.954
				c6.95-1.124,14.005-0.758,20.998-0.489c3.896,0.158,7.783,0.315,11.689,0.458c0.25-0.5,0.499-1.001,0.741-1.502
				c-4.17-0.172-8.333-0.335-12.505-0.49c-6.484-0.246-13.007-0.578-19.454,0.252c3.533-4.249,7.2-8.386,10.987-12.429
				c0.029,0.028,0.06,0.047,0.097,0.076c0.734,0.413,2.029,0.23,2.861,0.264c2.165,0.099,4.329,0.205,6.502,0.305
				c4.281,0.2,8.561,0.4,12.842,0.6c1.066,0.052,2.124,0.102,3.191,0.146c0.177-0.5,0.346-1.009,0.498-1.512
				c-4.458-0.211-8.909-0.414-13.359-0.624c-2.052-0.094-4.11-0.198-6.163-0.284c-1.034-0.048-2.06-0.095-3.085-0.15
				c-0.461-0.018-0.913-0.043-1.365-0.06c-0.201-0.014-0.481-0.053-0.694-0.035l-0.148,0.016c2.231-2.362,4.491-4.697,6.795-6.986
				c0.909-0.891,1.826-1.773,2.743-2.663c6.171-0.754,12.374-1.277,18.581-1.549c0.114-0.523,0.227-1.039,0.333-1.563
				c-5.709,0.244-11.416,0.684-17.097,1.338c5.512-5.275,11.201-10.376,17.025-15.309c0.609-0.526,1.226-1.043,1.843-1.56
				c-0.064-0.38-0.173-0.79-0.472-1.026c-0.134-0.112-0.289-0.178-0.456-0.212c-6.723,5.654-13.281,11.505-19.603,17.584
				c0.232-5.097,0.473-10.193,0.738-15.287c-0.53,0.169-1.059,0.331-1.566,0.511c-0.284,5.416-0.543,10.835-0.786,16.248
				l0.008,0.074c-2.87,2.787-5.674,5.639-8.442,8.535c-0.018-0.432-0.052-0.866-0.069-1.298c-0.059-1.021-0.111-2.025-0.162-3.046
				c-0.103-2.025-0.19-4.055-0.26-6.085c-0.124-3.326-0.198-6.654-0.257-9.981c-0.51,0.285-1.013,0.579-1.525,0.881
				c0.102,7.017,0.34,14.041,0.817,21.042c-3.464,3.689-6.847,7.459-10.111,11.323c-0.429,0.505-0.842,1.02-1.263,1.526
				c-0.389-8.469-0.705-16.946-0.931-25.422c-0.505,0.464-1.01,0.921-1.509,1.402c0.237,8.599,0.563,17.199,0.964,25.791
				c-2.803,3.436-5.517,6.947-8.141,10.532c-0.941-9.211-1.251-18.483-0.905-27.733c-0.542,0.655-1.077,1.311-1.605,1.984
				c-0.245,9.22,0.133,18.459,1.152,27.63c-1.83,2.56-3.607,5.15-5.323,7.78c-0.215,0.334-0.422,0.668-0.636,0.994
				c-2.384-7.226-4.011-14.694-4.833-22.252c-0.446,0.739-0.87,1.496-1.293,2.245c0.947,7.377,2.637,14.641,5.049,21.683
				c-2.316,3.66-4.519,7.397-6.599,11.204c-1.352-6.423-3.111-12.761-5.283-18.949c-0.306,0.721-0.603,1.428-0.892,2.143
				c2.092,6.187,3.773,12.492,5.037,18.897c-1.688,3.193-3.31,6.441-4.814,9.727c-0.095,0.201-0.173,0.395-0.267,0.588
				c-1.377-5.151-2.955-10.251-4.75-15.286c-0.244,0.891-0.479,1.782-0.699,2.684c1.621,4.699,3.057,9.467,4.309,14.272
				c0.035,0.126,0.128,0.241,0.247,0.336c-2.257,5.127-4.275,10.362-6.065,15.678L646.576,380.407z"/>
		</g>
	</g>
	<g>
		<g>
			<g>
				<path style="fill:#343C9E4F5096;" d="M64.383,35.918c0-1.336-1.083-2.419-2.419-2.419h-10.73c-1.336,0-2.419,1.083-2.419,2.419v10.73
					c0,1.336,1.083,2.419,2.419,2.419h7.587c-0.012,0.143-0.005,0.286-0.022,0.428c-0.098,0.85-0.278,1.702-0.657,2.47
					c-0.563,1.14-1.587,1.836-2.7,2.378c-0.717,0.349-2.585,1.385-0.965,2.098c0.292,0.128,0.62,0.144,0.939,0.146
					c2.137,0.017,4.393-0.446,6.046-1.883c0.818-0.711,1.433-1.313,1.892-2.32c0.518-1.137,0.811-2.371,0.92-3.613
					c0.043-0.484,0.147-1.258,0.089-1.891c-0.001-0.009-0.003-0.016-0.004-0.024c0.006-0.07,0.021-0.137,0.021-0.208V35.918z"/>
			</g>
			<g>
				<path style="fill:#343096;" d="M90.761,35.918c0-1.336-1.083-2.419-2.419-2.419h-10.73c-1.336,0-2.419,1.083-2.419,2.419v10.73
					c0,1.336,1.083,2.419,2.419,2.419H85.2c-0.012,0.143-0.005,0.286-0.022,0.428c-0.098,0.85-0.278,1.702-0.657,2.47
					c-0.563,1.14-1.587,1.836-2.7,2.378c-0.717,0.349-2.586,1.385-0.965,2.098c0.292,0.128,0.62,0.144,0.939,0.146
					c2.137,0.017,4.393-0.446,6.046-1.883c0.818-0.711,1.433-1.313,1.892-2.32c0.518-1.137,0.811-2.371,0.92-3.613
					c0.043-0.484,0.147-1.258,0.089-1.891c-0.001-0.009-0.003-0.016-0.004-0.024c0.006-0.07,0.021-0.137,0.021-0.208V35.918z"/>
			</g>
		</g>
		<g>
			<g>
				<path style="fill:#343096;" d="M488.771,304.355c0-1.336-1.083-2.419-2.419-2.419h-10.73c-1.336,0-2.419,1.083-2.419,2.419
					v10.73c0,1.336,1.083,2.419,2.419,2.419h7.587c-0.012,0.143-0.005,0.286-0.022,0.428c-0.098,0.851-0.278,1.702-0.657,2.47
					c-0.563,1.14-1.587,1.836-2.7,2.378c-0.717,0.349-2.585,1.385-0.965,2.098c0.292,0.128,0.62,0.144,0.939,0.146
					c2.137,0.017,4.393-0.446,6.046-1.883c0.818-0.711,1.433-1.313,1.892-2.32c0.518-1.137,0.811-2.371,0.92-3.613
					c0.043-0.484,0.147-1.258,0.089-1.891c-0.001-0.009-0.003-0.016-0.004-0.025c0.006-0.07,0.021-0.137,0.021-0.208V304.355z"/>
			</g>
			<g>
				<path style="fill:#343096;" d="M515.15,304.355c0-1.336-1.083-2.419-2.419-2.419h-10.73c-1.336,0-2.419,1.083-2.419,2.419v10.73
					c0,1.336,1.083,2.419,2.419,2.419h7.587c-0.012,0.143-0.005,0.286-0.022,0.428c-0.098,0.851-0.278,1.702-0.657,2.47
					c-0.563,1.14-1.587,1.836-2.7,2.378c-0.717,0.349-2.586,1.385-0.965,2.098c0.292,0.128,0.62,0.144,0.939,0.146
					c2.137,0.017,4.393-0.446,6.046-1.883c0.818-0.711,1.433-1.313,1.892-2.32c0.518-1.137,0.811-2.371,0.92-3.613
					c0.043-0.484,0.147-1.258,0.089-1.891c-0.001-0.009-0.003-0.016-0.004-0.025c0.006-0.07,0.021-0.137,0.021-0.208V304.355z"/>
			</g>
		</g>
	</g>
	<g>
		<g>
			<g>
				<path style="fill:#E94543;" d="M146.606,137.649H111.2c-4.089,0-7.403,3.315-7.403,7.403v19.311
					c0,4.089,3.315,7.403,7.403,7.403h16.565c0.475,0,0.937,0.154,1.318,0.438l11.84,8.861l-1.987-6.453
					c-0.435-1.414,0.622-2.846,2.102-2.846h5.569c4.089,0,7.403-3.315,7.403-7.403v-19.31
					C154.01,140.964,150.695,137.649,146.606,137.649z"/>
			</g>
			<g>
				<path style="fill:#E94543;" d="M192.258,156.433h35.406c4.089,0,7.403,3.315,7.403,7.403v19.311
					c0,4.089-3.315,7.403-7.403,7.403h-16.565c-0.475,0-0.937,0.154-1.318,0.438l-11.84,8.861l1.987-6.453
					c0.435-1.414-0.622-2.846-2.102-2.846h-5.569c-4.089,0-7.403-3.315-7.403-7.403v-19.31
					C184.854,159.748,188.169,156.433,192.258,156.433z"/>
			</g>
		</g>
		<g>
			<g>
				<g>
					<path style="fill:#6E79BE;" d="M584.876,208.614l-4.576-0.757c4.42-26.711,30.524-44.717,58.191-40.139
						c13.153,2.176,24.777,9.111,32.732,19.528c7.959,10.422,11.378,23.176,9.625,35.915l-4.595-0.632
						c3.308-24.047-13.611-46.113-38.519-50.235C612.59,168.133,588.878,184.426,584.876,208.614z"/>
				</g>
				<g>
					
						<ellipse transform="matrix(0.1632 -0.9866 0.9866 0.1632 244.862 752.4514)" style="fill:#E94543;" cx="566.025" cy="231.872" rx="22.789" ry="15.644"/>
					<path style="fill:#343096;" d="M571.6,262.068L571.6,262.068c-5.245-0.868-8.794-5.824-7.926-11.069l6.286-37.991
						c0.868-5.245,5.824-8.794,11.069-7.926l0,0c5.245,0.868,8.794,5.824,7.926,11.07l-6.286,37.991
						C581.801,259.387,576.845,262.936,571.6,262.068z"/>
					
						<ellipse transform="matrix(0.1632 -0.9866 0.9866 0.1632 325.9537 887.911)" style="fill:#E94543;" cx="686.43" cy="251.795" rx="22.789" ry="15.644"/>
					<path style="fill:#343096;" d="M671.426,278.586L671.426,278.586c5.245,0.868,10.201-2.681,11.069-7.926l6.286-37.991
						c0.868-5.245-2.681-10.201-7.926-11.07l0,0c-5.245-0.868-10.202,2.681-11.07,7.926l-6.286,37.991
						C662.632,272.762,666.18,277.718,671.426,278.586z"/>
				</g>
				<g>
					<g>
						<path style="fill:#E94543;" d="M671.887,197.503c-1.177-0.195-2.263-0.891-2.917-1.999
							c-6.709-11.381-18.204-19.174-31.539-21.38c-12.45-2.06-25.198,1.089-34.977,8.64c-1.824,1.409-4.446,1.072-5.855-0.753
							c-1.409-1.825-1.072-4.446,0.753-5.855c11.607-8.964,26.712-12.706,41.442-10.269c15.78,2.611,29.4,11.861,37.368,25.377
							c1.171,1.986,0.509,4.545-1.477,5.715C673.809,197.498,672.819,197.657,671.887,197.503z"/>
					</g>
				</g>
			</g>
			<g>
				<g>
					<g>
						<path style="fill:#4B47B3;" d="M542.23,44.492l79.404-14.666c3.019-0.558,5.943,0.505,7.901,2.872l51.903,62.722
							c1.231,1.487,0.293,4.125-1.603,4.507l-79.526,16.015c-3.291,0.663-6.492-0.5-8.592-3.122l-51.146-63.84
							C539.362,47.469,540.333,44.842,542.23,44.492z"/>
						<g style="opacity:0.5;">
							<g>
								<path style="fill:#FFFFFF;" d="M664.45,86.486c1.625,1.958,3.249,3.917,4.874,5.875c0.235,0.284,0.618,0.411,0.948,0.191
									c0.282-0.188,0.428-0.662,0.191-0.948c-1.625-1.958-3.249-3.917-4.874-5.875c-0.236-0.284-0.618-0.411-0.948-0.191
									C664.359,85.726,664.213,86.2,664.45,86.486L664.45,86.486z"/>
							</g>
							<g>
								<path style="fill:#FFFFFF;" d="M627.488,41.933c11.102,13.382,22.204,26.764,33.307,40.146
									c0.557,0.671,1.701-0.08,1.139-0.757c-11.102-13.382-22.204-26.764-33.306-40.146
									C628.07,40.505,626.927,41.257,627.488,41.933L627.488,41.933z"/>
							</g>
						</g>
					</g>
					<path style="fill:#6E79BE;" d="M636.728,116.103c-1.085,3.042-18.651-0.442-39.236-7.781
						c-20.585-7.339-36.392-15.755-35.308-18.797c1.085-3.042,19.169-5.126,39.753,2.213
						C622.523,99.078,637.813,113.061,636.728,116.103z"/>
					<path style="fill:#343096;" d="M636.61,116.655c2.553-2.662,5.504-7.159,7.791-10.508c1.102-1.596,2.167-3.237,3.15-4.83
						c4.452-7.164,7.561-13.597,7.561-13.597c1.009-2.798-16.534-16.425-41.068-25.267c-24.523-8.838-46.737-9.54-47.745-6.742
						c0,0-1.698,6.941-2.852,15.294c-0.248,1.857-0.486,3.796-0.656,5.729c-0.376,4.039-0.96,9.388-0.693,13.066
						c0.013,0.149,0.023,0.283,0.037,0.419c0.015-0.007,0.03-0.013,0.045-0.02c0.005-0.369,0.219-1.52,2.699-1.699
						c10.414-0.75,25.973,1.97,37.604,6.162c10.198,3.675,20.207,9.041,26.769,13.857c6.628,4.865,7.127,7.915,7.069,8.428
						C636.417,116.854,636.508,116.759,636.61,116.655z"/>
					<g>
						<path style="fill:#E94543;" d="M563.446,71.005c-0.248,1.857-0.486,3.796-0.656,5.729c11.663,0.232,26.702,2.646,43.031,8.531
							c16.341,5.889,29.45,13.62,38.58,20.882c1.102-1.596,2.168-3.237,3.15-4.83c-10.158-8.1-24.183-15.958-39.742-21.565
							C592.249,74.144,576.436,71.248,563.446,71.005z"/>
					</g>
					<g>
						<path style="fill:#343096;" d="M559.786,40.642c-2.533,3.821-2.429,9.014-2.843,13.416c-0.492,5.237-0.914,10.48-1.265,15.728
							c-0.702,10.496-1.122,21.01-1.259,31.529c-0.078,6.011-0.062,12.022,0.042,18.032c0.023,1.32,2.074,1.289,2.051-0.033
							c-0.357-20.585,0.355-41.187,2.156-61.697c0.25-2.844,0.517-5.687,0.811-8.527c0.269-2.597,0.621-5.219,2.094-7.441
							C562.305,40.546,560.512,39.548,559.786,40.642L559.786,40.642z"/>
					</g>
					<g>
						<g>
							<g>
								<path style="fill:#343096;" d="M552.281,124.538c1.129-1.533,2.793-2.837,4.456-2.336c1.467,0.442,2.862,2.345,3.449,3.677
									c0.965,2.19,0.761,4.858-0.528,6.875c-0.731,1.145-1.774,2.075-2.429,3.265c-0.638,1.159-0.872,2.535-0.652,3.839
									c-2.965-1.432-5.197-4.297-5.86-7.523c-0.369-1.795-0.247-3.681,0.304-5.426
									C551.244,126.207,551.69,125.341,552.281,124.538z"/>
							</g>
							<path style="fill:#E94543;" d="M552.862,120.518c-0.138,1.392,0.879,2.633,2.271,2.771c1.392,0.138,2.633-0.879,2.771-2.271
								s-0.879-2.633-2.271-2.771C554.24,118.109,553,119.126,552.862,120.518z"/>
						</g>
					</g>
				</g>
				<g>
					<path style="fill:#6E79BE;" d="M177.086,106.304h40.999c-0.871-11.469-5.47-21.111-11.816-25.79
						c2.271-2.242,3.681-5.354,3.681-8.797c0-6.829-5.536-12.364-12.364-12.364c-6.829,0-12.365,5.536-12.365,12.364
						c0,3.443,1.41,6.555,3.681,8.797C182.557,85.194,177.957,94.835,177.086,106.304z"/>
					<g>
						<path style="fill:#6E79BE;" d="M247.878,97.826h-28.152c-1.692-6.839-4.528-12.759-8.13-17.179
							c1.932-3.632,4.351-6.592,7.102-8.609c-2.272-2.249-3.686-5.355-3.686-8.802c0-6.831,5.541-12.364,12.365-12.364
							c6.831,0,12.365,5.533,12.365,12.364c0,3.447-1.406,6.553-3.678,8.802C242.407,76.714,247.005,86.358,247.878,97.826z"/>
						<path style="fill:#6E79BE;" d="M183.568,80.64c-3.593,4.42-6.429,10.347-8.122,17.187h-28.152
							c0.873-11.468,5.471-21.112,11.816-25.788c-2.272-2.249-3.678-5.355-3.678-8.802c0-6.831,5.533-12.364,12.364-12.364
							c6.824,0,12.365,5.533,12.365,12.364c0,3.447-1.414,6.553-3.686,8.802C179.225,74.055,181.636,77.015,183.568,80.64z"/>
					</g>
				</g>
				<g>
					<g>
						<g>
							<path style="fill:#E94543;" d="M328.143,62.654c-8.766,0-15.872,7.106-15.872,15.872v28.459
								c0,8.766,7.106,15.872,15.872,15.872c8.766,0,15.872-7.106,15.872-15.872V78.526
								C344.016,69.76,336.909,62.654,328.143,62.654z"/>
						</g>
						<path style="fill:#343096;" d="M353.439,88.066c0-1.783-1.446-3.229-3.229-3.229c-1.783,0-3.229,1.446-3.229,3.229
							c0,1.366,0.852,2.528,2.051,2.999v15.183c0,11.518-9.37,20.888-20.888,20.888c-11.518,0-20.888-9.37-20.888-20.888V91.066
							c1.199-0.472,2.05-1.633,2.05-2.999c0-1.783-1.446-3.229-3.229-3.229c-1.783,0-3.229,1.446-3.229,3.229
							c0,1.367,0.852,2.528,2.051,3v15.183c0,12.817,10.427,23.244,23.244,23.244c12.817,0,23.244-10.427,23.244-23.244V91.066
							C352.587,90.594,353.439,89.433,353.439,88.066z"/>
						<path style="fill:#343096;" d="M333.315,137.896v-10.057h-10.344v10.057c-7.296,1.266-12.755,5.138-13.428,9.838h37.2
							C346.071,143.034,340.612,139.162,333.315,137.896z"/>
					</g>
					<g>
						<g>
							<g>
								<path style="fill:#6E79BE;" d="M358.779,115.912c-0.296,0-0.591-0.117-0.81-0.35c-0.421-0.447-0.399-1.15,0.048-1.571
									c5.12-4.815,5.477-11.173,5.393-13.683c-0.245-7.327-5.365-12.528-5.416-12.58c-0.434-0.434-0.435-1.137-0.002-1.571
									c0.432-0.433,1.135-0.436,1.57-0.004c0.237,0.235,5.793,5.85,6.069,14.08c0.094,2.813-0.31,9.94-6.092,15.377
									C359.326,115.812,359.052,115.912,358.779,115.912z"/>
							</g>
							<g>
								<path style="fill:#6E79BE;" d="M365.798,123.968c-0.296,0-0.591-0.117-0.81-0.35c-0.421-0.447-0.399-1.15,0.048-1.571
									c8.274-7.779,8.85-18.037,8.715-22.086c-0.397-11.836-8.654-20.206-8.738-20.289c-0.434-0.433-0.436-1.136-0.003-1.571
									c0.434-0.434,1.135-0.436,1.571-0.005c0.366,0.364,8.964,9.052,9.391,21.79c0.146,4.352-0.479,15.379-9.414,23.78
									C366.345,123.869,366.071,123.968,365.798,123.968z"/>
							</g>
						</g>
						<g>
							<g>
								<path style="fill:#6E79BE;" d="M297.508,115.912c-0.273,0-0.546-0.1-0.761-0.302c-5.782-5.436-6.187-12.564-6.092-15.377
									c0.276-8.23,5.833-13.845,6.07-14.08c0.435-0.431,1.138-0.429,1.57,0.004c0.433,0.434,0.432,1.137-0.002,1.571
									c-0.052,0.052-5.171,5.253-5.417,12.58c-0.084,2.51,0.272,8.868,5.393,13.683c0.447,0.421,0.469,1.124,0.048,1.571
									C298.099,115.794,297.804,115.912,297.508,115.912z"/>
							</g>
							<g>
								<path style="fill:#6E79BE;" d="M290.489,123.968c-0.273,0-0.547-0.1-0.761-0.302c-8.935-8.401-9.56-19.429-9.414-23.78
									c0.428-12.738,9.026-21.426,9.391-21.79c0.436-0.432,1.138-0.43,1.57,0.005c0.433,0.434,0.431,1.138-0.003,1.571
									c-0.083,0.083-8.34,8.454-8.738,20.289c-0.136,4.049,0.441,14.307,8.715,22.086c0.447,0.421,0.469,1.124,0.048,1.571
									C291.079,123.851,290.784,123.968,290.489,123.968z"/>
							</g>
						</g>
					</g>
				</g>
			</g>
			<g>
				<g>
					<g>
						<polygon style="fill:#343096;" points="177.636,323.497 108.618,399.267 55.391,261.638 65.863,188.097 						"/>
						<g>
							<path style="fill:#ED8685;" d="M121.497,242.974c0.711,0.94,1.451,1.997,1.371,3.173c-0.076,1.123-0.882,2.044-1.657,2.86
								c-7.034,7.406-15.004,13.849-22.948,20.268c-6.782,5.48-13.565,10.961-20.347,16.441c-0.411,0.332-0.854,0.678-1.379,0.734
								c-0.771,0.082-1.449-0.474-2.016-1.004c-5.708-5.327-12.629-12.818-14.173-20.78c-0.616-3.177-0.444-6.451-0.171-9.675
								c0.589-6.95,1.638-13.853,2.793-20.731c2.474-14.725,5.443-29.367,8.9-43.893c-0.107,0.451,11.781,10.408,12.951,11.734
								c3.326,3.769,7.316,6.391,10.679,10.117C104.494,222.184,113.392,232.262,121.497,242.974z"/>
						</g>
						<g>
							<path style="fill:#E94543;" d="M188.21,207.453c5.051-0.608,10.242-0.947,14.858-0.219c3.015,0.475,3.607,1.241,5.709,3.322
								c0.523,0.518,5.32,6.087,5.818,5.87c-35.748,15.58-70.337,33.797-106.544,48.278c-9.226,3.69-18.674,7.164-28.555,8.215
								c-3.701,0.394-7.438,0.443-11.147,0.147c-2.043-0.163-4.515-0.788-5.034-2.772c-0.364-1.389,0.451-2.79,1.268-3.972
								c16.729-24.197,40.638-36.862,68.157-46.134c15.056-5.073,30.47-9.306,46.235-11.463
								C181.877,208.329,185.016,207.837,188.21,207.453z"/>
						</g>
						<polygon style="fill:#343096;" points="279.37,383.773 135.968,439.233 70.016,268.701 216.643,211.994 						"/>
						<polygon style="fill:#E94543;" points="55.391,261.638 70.016,268.701 135.968,439.233 119.361,431.277 						"/>
						<g>
							
								<rect x="113.812" y="263.435" transform="matrix(0.937 -0.3494 0.3494 0.937 -91.9975 76.484)" style="fill:#E94543;" width="104.321" height="59.545"/>
							
								<rect x="117.867" y="267.283" transform="matrix(0.937 -0.3494 0.3494 0.937 -92.0043 76.6605)" style="fill:#343096;" width="97.183" height="52.064"/>
							<g>
								<defs>
									
										<rect id="SVGID_1_" x="117.867" y="267.283" transform="matrix(0.937 -0.3494 0.3494 0.937 -92.0043 76.6605)" width="97.183" height="52.064"/>
								</defs>
								<clipPath id="SVGID_00000132794638795343479680000000239545917612114327_">
									<use xlink:href="#SVGID_1_"  style="overflow:visible;"/>
								</clipPath>
								<g style="clip-path:url(#SVGID_00000132794638795343479680000000239545917612114327_);">
									<g>
										<g>
											<polygon style="fill:#FFFFFF;" points="109.252,292.131 160.193,297.611 180.414,290.069 105.503,282.078 											"/>
											<polygon style="fill:#E94543;" points="108.613,290.417 159.554,295.897 166.53,293.296 107.31,286.922 											"/>
										</g>
										<g>
											<polygon style="fill:#FFFFFF;" points="208.871,254.977 173.96,292.476 153.739,300.018 205.122,244.924 											"/>
											<polygon style="fill:#E94543;" points="204.607,252.513 167.81,292.037 160.835,294.639 203.303,249.017 											"/>
										</g>
										<g>
											<polygon style="fill:#FFFFFF;" points="223.654,294.615 172.713,289.135 152.493,296.676 227.404,304.668 											"/>
											<polygon style="fill:#E94543;" points="224.293,296.328 173.352,290.849 166.377,293.45 225.597,299.824 											"/>
										</g>
										<g>
											<polygon style="fill:#FFFFFF;" points="124.036,331.769 158.947,294.269 179.167,286.728 127.785,341.822 											"/>
											<polygon style="fill:#E94543;" points="127.958,334.57 165.097,294.708 172.072,292.107 129.262,338.066 											"/>
										</g>
									</g>
									<g>
										<polygon style="fill:#FFFFFF;" points="209.161,268.76 171.15,282.937 163.923,263.56 148.843,269.184 156.07,288.561 
											118.059,302.738 123.683,317.817 161.694,303.641 168.249,321.215 183.328,315.591 176.774,298.017 214.785,283.84 
																					"/>
										<polygon style="fill:#E94543;" points="210.248,271.673 169.323,286.936 161.01,264.646 151.756,268.097 160.07,290.388 
											119.145,305.651 122.596,314.904 163.521,299.641 171.162,320.129 180.415,316.677 172.774,296.19 213.699,280.927 
																					"/>
									</g>
								</g>
							</g>
						</g>
					</g>
					<g>
						<g>
							<g>
								<g>
									<path style="fill:#6E79BE;" d="M95.217,419.624c-0.355-0.241-0.553-0.676-0.468-1.124c0.113-0.604,0.694-1.001,1.297-0.887
										c6.164,1.157,39.226,12.13,61.103,19.392c8.921,2.96,15.967,5.298,18.449,6.062l0.809,0.249
										c5.833,1.789,11.862,3.64,16.631,7.642c4.928,4.138,8.38,11.672,5.443,18.064c-0.256,0.559-0.917,0.803-1.474,0.546
										c-0.557-0.275-0.801-0.918-0.546-1.473c2.473-5.382-0.569-11.839-4.852-15.436c-4.414-3.716-10.233-5.493-15.854-7.22
										l-0.812-0.249c-2.503-0.771-9.56-3.112-18.494-6.078c-21.821-7.242-54.798-18.186-60.813-19.317
										C95.48,419.768,95.339,419.707,95.217,419.624z"/>
								</g>
							</g>
						</g>
						<path style="fill:#6E79BE;" d="M94.266,414.684c-0.652-0.093-1.324-0.108-1.96,0.061c-1.151,0.304-2.175,1.352-1.812,2.621
							c0.1,0.348,0.302,0.655,0.518,0.946c0.278,0.375,0.591,0.739,1.001,0.962c0.387,0.21,0.834,0.278,1.27,0.341
							c0.639,0.093,1.413,0.32,1.927-0.166c0.57-0.538,0.591-1.563,0.588-2.275C95.793,415.775,95.853,414.993,94.266,414.684z"/>
						<g>
							<g>
								<g>
									<path style="fill:#6E79BE;" d="M82.969,439.357c-0.321-0.218-0.518-0.599-0.483-1.014
										c0.596-7.008,7.313-11.862,13.64-13.034c6.124-1.135,12.288,0.231,18.248,1.552l0.816,0.181
										c2.533,0.559,9.811,1.996,19.024,3.815c22.621,4.468,56.805,11.219,62.739,13.25c0.573,0.206,0.89,0.83,0.691,1.411
										c-0.199,0.581-0.83,0.89-1.411,0.692c-5.791-1.984-39.887-8.718-62.449-13.173c-9.227-1.822-16.514-3.263-19.072-3.826
										l-0.818-0.18c-5.744-1.273-11.683-2.589-17.362-1.537c-5.499,1.019-11.33,5.139-11.831,11.039
										c-0.051,0.611-0.59,1.065-1.202,1.013C83.302,439.526,83.122,439.46,82.969,439.357z"/>
								</g>
							</g>
						</g>
						<path style="fill:#6E79BE;" d="M199.945,442.437c0.612,0.241,1.205,0.559,1.675,1.019c0.852,0.832,1.226,2.248,0.284,3.173
							c-0.258,0.253-0.586,0.421-0.917,0.568c-0.426,0.189-0.878,0.352-1.345,0.343c-0.441-0.008-0.862-0.169-1.273-0.329
							c-0.602-0.234-1.387-0.418-1.595-1.094c-0.231-0.75,0.256-1.651,0.61-2.27C198.079,442.634,198.411,441.924,199.945,442.437z"
							/>
						<g>
							<g>
								<g>
									<path style="fill:#6E79BE;" d="M139.333,428.183l-0.889-2.037c2.829-1.237,6.298-1.223,9.766,0.039
										c3.134,1.139,5.838,3.093,8.131,4.835l-1.343,1.769c-2.163-1.639-4.708-3.481-7.546-4.518
										C144.52,427.206,141.637,427.175,139.333,428.183z"/>
								</g>
							</g>
						</g>
						<path style="opacity:0.3;fill:#FFFFFF;" d="M129.532,408.969c0.15,0.076,0.299,0.152,0.447,0.229
							c3.662,1.889,7.579,5.128,9.015,9.091c1.147,3.164,0.7,6.731-0.541,9.859c-3.063,7.719-13.08,15.307-21.638,14.113
							c-7.215-1.007-13.612-5.13-17.49-11.3c-2.301-3.661-3.274-7.825-3.582-12.097c-0.229-3.173-0.258-6.491,0.604-9.579
							c0.909-3.257,2.452-4.892,5.774-5.807c4.5-1.239,9.32-0.905,13.842,0.249C120.573,404.903,125.292,406.815,129.532,408.969z"
							/>
						<path style="opacity:0.3;fill:#FFFFFF;" d="M173.961,419.832c-0.165-0.03-0.33-0.06-0.494-0.09
							c-4.057-0.722-9.135-0.528-12.683,1.748c-2.832,1.817-4.644,4.923-5.557,8.162c-2.254,7.993,1.097,20.105,8.621,24.353
							c6.344,3.582,13.93,4.191,20.758,1.643c4.052-1.512,7.353-4.229,10.192-7.436c2.109-2.382,4.147-5,5.337-7.978
							c1.256-3.14,1.023-5.376-1.06-8.12c-2.823-3.717-6.855-6.379-11.149-8.208C183.548,422.043,178.638,420.696,173.961,419.832z"
							/>
						<g style="opacity:0.2;">
							<path style="fill:#FFFFFF;" d="M112.232,402.999c-3.382-0.477-6.831-0.425-10.111,0.478
								c-0.059,0.017-0.108,0.037-0.166,0.054l12.935,38.352c0.637,0.141,1.273,0.286,1.926,0.377
								c2.692,0.376,5.53-0.12,8.249-1.214L112.232,402.999z"/>
							<path style="fill:#FFFFFF;" d="M116.715,403.946l11.901,35.286c1.9-1.17,3.675-2.592,5.21-4.179l-9.617-28.515
								C121.748,405.517,119.226,404.629,116.715,403.946z"/>
						</g>
						<g style="opacity:0.2;">
							<path style="fill:#FFFFFF;" d="M173.035,419.68c-3.239-0.517-7.034-0.431-10.189,0.797l12.37,36.677
								c3.163,0.101,6.35-0.373,9.388-1.505c0.169-0.064,0.318-0.159,0.485-0.226L173.035,419.68z"/>
							<path style="fill:#FFFFFF;" d="M177.5,420.571l11.128,32.996c1.888-1.211,3.6-2.673,5.165-4.313l-8.949-26.536
								C182.454,421.867,179.975,421.148,177.5,420.571z"/>
						</g>
						<path style="fill:#6E79BE;" d="M107.516,440.271c-3.679-2.078-6.826-5.052-9.131-8.721c-2.16-3.433-3.386-7.557-3.75-12.607
							c-0.206-2.83-0.316-6.521,0.64-9.956c1.026-3.677,2.924-5.583,6.549-6.581c4.297-1.184,9.146-1.101,14.412,0.243
							c4.355,1.112,9.126,2.954,13.799,5.327l0.452,0.233c4.643,2.451,8.22,6.026,9.552,9.699c1.13,3.12,0.933,6.902-0.554,10.647
							c-3.192,8.046-13.632,16.088-22.825,14.805C113.399,442.907,110.305,441.847,107.516,440.271z M129.025,409.957
							c-4.527-2.301-9.14-4.083-13.337-5.156c-4.888-1.246-9.353-1.333-13.273-0.253c-2.873,0.792-4.182,2.109-4.998,5.034
							c-0.865,3.105-0.757,6.548-0.565,9.201c0.337,4.676,1.454,8.467,3.414,11.586c3.704,5.89,9.791,9.822,16.702,10.792
							c8.073,1.126,17.623-6.292,20.453-13.424c1.286-3.243,1.474-6.464,0.53-9.071c-1.147-3.162-4.304-6.344-8.48-8.481
							L129.025,409.957z"/>
						<path style="fill:#6E79BE;" d="M163.298,454.97c-8.081-4.564-11.491-17.289-9.141-25.621c1.093-3.878,3.234-7.003,6.026-8.793
							c3.291-2.114,8.329-2.827,13.478-1.907l0.501,0.091c0.001,0,0.001,0,0.002,0.001l0.003-0.001
							c5.151,0.951,10.059,2.385,14.194,4.145c4.998,2.135,8.904,5.012,11.598,8.56c2.275,2.992,2.624,5.659,1.208,9.203
							c-1.327,3.313-3.657,6.176-5.538,8.301c-3.353,3.79-6.832,6.322-10.636,7.741c-7.137,2.662-15.044,2.037-21.691-1.718
							C163.3,454.971,163.299,454.971,163.298,454.97z M190.862,426.586c-1.054-0.595-2.179-1.148-3.372-1.656
							c-3.987-1.699-8.736-3.083-13.73-4.005l-0.481-0.087c-4.619-0.825-9.064-0.23-11.895,1.587
							c-2.334,1.498-4.14,4.171-5.087,7.529c-2.083,7.384,1,19.074,8.096,23.082c0.001,0,0.002,0.001,0.003,0.002
							c6.074,3.431,13.3,4.003,19.823,1.57c3.452-1.287,6.642-3.62,9.749-7.131c1.762-1.99,3.939-4.658,5.138-7.654
							c1.127-2.82,0.889-4.662-0.914-7.033C196.364,430.384,193.908,428.306,190.862,426.586z"/>
					</g>
				</g>
				<g>
					
						<rect x="323.276" y="386.689" transform="matrix(0.7265 0.6872 -0.6872 0.7265 363.243 -114.7314)" style="fill:#343096;" width="4.949" height="24.522"/>
					<g>
						
							<ellipse transform="matrix(0.9996 -0.0284 0.0284 0.9996 -10.4384 10.1244)" style="fill:#E8F6FF;" cx="350.964" cy="372.293" rx="32.215" ry="32.215"/>
						<path style="fill:#E94543;" d="M326.539,398.117c-14.239-13.468-14.866-36.01-1.397-50.249
							c13.468-14.239,36.01-14.866,50.249-1.398c14.239,13.468,14.866,36.01,1.398,50.249
							C363.319,410.958,340.778,411.585,326.539,398.117z M370.814,351.308c-11.572-10.945-29.89-10.436-40.835,1.136
							c-10.945,11.571-10.436,29.89,1.135,40.835c11.572,10.945,29.89,10.435,40.835-1.136
							C382.895,380.571,382.385,362.253,370.814,351.308z"/>
					</g>
					<g>
						<g>
							<path style="fill:#6E79BE;" d="M278.832,448.553L278.832,448.553c-3.25-3.074-3.392-8.2-0.319-11.449l32.743-34.616
								c3.074-3.25,8.199-3.392,11.449-0.318l0,0c3.249,3.074,3.392,8.199,0.318,11.449l-32.742,34.616
								C287.207,451.484,282.081,451.627,278.832,448.553z"/>
						</g>
					</g>
					<g>
						<path style="fill:#FFFFFF;" d="M354.776,393.627c-3.905,0.703-7.919,0.454-11.659-0.9c-1.734-0.628-2.702,2.07-0.965,2.699
							c4.205,1.522,8.763,1.809,13.153,1.019C357.12,396.118,356.596,393.299,354.776,393.627L354.776,393.627z"/>
					</g>
					<g>
						<path style="fill:#FFFFFF;" d="M369.768,359.589c6.195,10.039,3.534,23.856-6.275,30.555
							c-1.525,1.042,0.333,3.227,1.843,2.195c10.769-7.354,13.832-22.942,7.023-33.976
							C371.399,356.808,368.799,358.018,369.768,359.589L369.768,359.589z"/>
					</g>
				</g>
				<g>
					<g>
						<path style="fill:#343096;" d="M695.008,406.53c0-5.147-2.001-9.337-4.434-9.595v-0.025H461.709
							c-2.61,0-4.669,4.307-4.669,9.62c0,5.313,2.06,9.621,4.669,9.621h228.866v-0.025
							C693.007,415.868,695.008,411.677,695.008,406.53z"/>
						<rect x="475.033" y="402.467" style="fill:#E94543;" width="201.982" height="8.126"/>
					</g>
					<g>
						<rect x="490.629" y="348.14" style="fill:#C9E4F5;" width="110.856" height="48.687"/>
						<path style="fill:#4B47B3;" d="M724.286,370.902c0,12.008-8.166,22.095-19.238,25.039c-1.81,0.493-3.707,0.788-5.653,0.862
							c-0.086,0-0.172,0.025-0.259,0.025H480.488c-0.714,0-1.379-0.296-1.847-0.764c-0.468-0.468-0.764-1.133-0.764-1.847
							c0-1.441,1.17-2.611,2.611-2.611h87.124c0.172,0,0.333-0.025,0.493-0.049c0.271,0.012,0.542,0.025,0.825,0.025
							c11.429,0,20.691-9.274,20.691-20.703c0-11.429-9.262-20.691-20.691-20.691c-0.357,0-0.702,0.012-1.059,0.025
							c-0.086,0-0.172-0.025-0.259-0.025h-87.124c-1.441,0-2.611-1.17-2.611-2.611c0-1.441,1.17-2.611,2.611-2.611h218.649
							c0.086,0,0.172,0.025,0.259,0.025c1.564,0.061,3.091,0.271,4.582,0.603C715.591,348.154,724.286,358.5,724.286,370.902z"/>
						<path style="fill:none;stroke:#B3D2E6;stroke-linecap:round;stroke-linejoin:round;stroke-miterlimit:10;" d="
							M582.295,344.968c0,0,11.184,3.347,15.778,17.128c3.867,11.602,0.065,29.154-15.778,34.815"/>
						<g>
							<g>
								<path style="fill:#343096;" d="M611.729,396.828h-9.951c16.307-6.01,18.807-24.14,15.334-34.559
									c-4.483-13.449-15.038-16.848-15.481-16.984c-0.234-0.074-0.456-0.185-0.653-0.32h9.976
									c3.867,3.055,8.24,7.993,10.838,15.752C625.782,372.725,622.703,388.132,611.729,396.828z"/>
							</g>
							<g>
								<path style="fill:#343096;" d="M705.049,395.941c-1.81,0.493-3.707,0.788-5.653,0.862c-0.086,0-0.172,0.025-0.259,0.025
									h-5.111c16.319-6.01,18.807-24.14,15.346-34.559c-4.483-13.449-15.038-16.848-15.494-16.984
									c-0.234-0.074-0.456-0.185-0.653-0.32h5.912c0.086,0,0.172,0.025,0.259,0.025c1.564,0.061,3.091,0.271,4.582,0.603
									c3.67,3.079,7.648,7.87,10.062,15.124C717.907,372.319,715.148,387.11,705.049,395.941z"/>
							</g>
						</g>
						<ellipse style="fill:#343096;" cx="666.644" cy="370.896" rx="34.485" ry="9.317"/>
					</g>
					<g>
						<rect x="559.748" y="419.403" style="fill:#C9E4F5;" width="117.225" height="46.333"/>
						<g>
							<g>
								<rect x="555.179" y="425.783" style="fill:#343096;" width="121.794" height="0.924"/>
							</g>
							<g>
								<rect x="555.179" y="432.421" style="fill:#343096;" width="121.794" height="0.924"/>
							</g>
							<g>
								<rect x="555.179" y="439.072" style="fill:#343096;" width="121.794" height="0.924"/>
							</g>
							<g>
								<rect x="555.179" y="445.71" style="fill:#343096;" width="121.794" height="0.924"/>
							</g>
							<g>
								<rect x="555.179" y="452.361" style="fill:#343096;" width="121.794" height="0.924"/>
							</g>
							<g>
								<rect x="555.179" y="459" style="fill:#343096;" width="121.794" height="0.924"/>
							</g>
						</g>
						<path style="fill:#E94543;" d="M460.421,442.164c0-13.971,11.051-25.355,24.887-25.903c0.087-0.009,13.865,0,0,0l187.85-0.026
							c15.396,0,16.565,0,16.565,2.61c0,1.442-1.169,2.61-2.61,2.61H586.035c-0.09,0-0.175,0.018-0.263,0.026
							c-0.348-0.017-0.698-0.026-1.049-0.026c-11.429,0-20.695,9.265-20.695,20.694c0,11.429,9.265,20.695,20.695,20.695
							c0.276,0,0.549-0.01,0.823-0.021c0.159,0.03,0.322,0.049,0.49,0.049h101.078c1.442,0,2.61,1.169,2.61,2.61v0
							c0,1.442-1.169,2.61-2.61,2.61H485.569c-0.09,0-0.174-0.018-0.261-0.026C471.471,467.519,460.421,456.134,460.421,442.164z"/>
						<path style="fill:#343096;" d="M630.348,452.361h17.454c0,0,7.165,9.838,2.205,17.309l-6.684-7.83l-11.321,7.83
							C632.002,469.67,637.697,459.708,630.348,452.361z"/>
						<g>
							<path style="fill:#343096;" d="M564.61,417.01c-7.682,6.466-12.707,16.228-12.643,26.361
								c0.061,9.779,4.919,19.272,13.01,24.801c1.476,1.009,2.864-1.391,1.399-2.393c-7.406-5.061-11.727-13.958-11.637-22.874
								c0.094-9.291,4.802-18.02,11.831-23.936C567.936,417.819,565.967,415.868,564.61,417.01L564.61,417.01z"/>
						</g>
						<path style="fill:#4B47B3;" d="M541.228,446.634h-67.671c-2.5,0-4.528-2.027-4.528-4.527v-2.097
							c0-2.5,2.027-4.527,4.528-4.527h67.671c2.5,0,4.528,2.027,4.528,4.527v2.097C545.755,444.607,543.728,446.634,541.228,446.634
							z"/>
					</g>
				</g>
			</g>
		</g>
	</g>
	<g>
		<g>
			<g>
				<path style="fill:#B3D2E6;" d="M55.488,111.425c0.354,0.117,0.738-0.076,0.855-0.43c0.629-1.905,2.401-3.185,4.408-3.185
					c2.029,0,3.856,1.355,4.443,3.294c0.002,0.006,0.006,0.01,0.008,0.015c0.814,2.456,3.1,4.107,5.691,4.107
					c2.644,0,4.934-1.689,5.72-4.207c0.004-0.009,0.011-0.016,0.014-0.025c0.629-1.905,2.401-3.184,4.408-3.184
					c2.029,0,3.855,1.355,4.443,3.294c0.002,0.005,0.006,0.009,0.008,0.014c0.814,2.457,3.101,4.107,5.691,4.107
					c2.644,0,4.934-1.689,5.72-4.207c0.004-0.009,0.011-0.016,0.014-0.025c0.63-1.905,2.401-3.185,4.408-3.185
					c2.029,0,3.856,1.355,4.443,3.294c0.002,0.005,0.006,0.009,0.008,0.014c0.814,2.457,3.101,4.107,5.691,4.107
					c2.644,0,4.934-1.689,5.72-4.207c0.004-0.009,0.011-0.016,0.014-0.025c0.63-1.905,2.401-3.185,4.408-3.185
					c2.029,0,3.856,1.355,4.443,3.294c0.002,0.006,0.006,0.01,0.008,0.015c0.814,2.456,3.1,4.107,5.691,4.107
					c2.662,0,4.968-1.711,5.739-4.257c0.109-0.358-0.094-0.736-0.452-0.844c-0.065-0.02-0.132-0.029-0.196-0.029
					c-0.291,0-0.559,0.189-0.648,0.482c-0.587,1.94-2.414,3.294-4.443,3.294c-2.008,0-3.779-1.28-4.408-3.184
					c-0.003-0.009-0.01-0.015-0.014-0.024c-0.775-2.48-3.117-4.208-5.72-4.208c-2.586,0-4.868,1.646-5.686,4.096
					c-0.003,0.009-0.01,0.017-0.013,0.026c-0.587,1.94-2.414,3.294-4.443,3.294c-2.007,0-3.779-1.28-4.408-3.184
					c-0.003-0.009-0.01-0.015-0.014-0.024c-0.786-2.518-3.076-4.208-5.72-4.208c-2.586,0-4.868,1.646-5.686,4.096
					c-0.003,0.009-0.01,0.017-0.013,0.026c-0.596,1.97-2.382,3.294-4.443,3.294c-2.007,0-3.779-1.28-4.408-3.184
					c-0.003-0.009-0.01-0.015-0.014-0.024c-0.785-2.518-3.076-4.208-5.72-4.208c-2.586,0-4.867,1.645-5.685,4.094
					c-0.004,0.01-0.011,0.018-0.014,0.028c-0.587,1.94-2.414,3.294-4.443,3.294c-2.008,0-3.779-1.28-4.408-3.184
					c-0.003-0.009-0.01-0.015-0.014-0.024c-0.775-2.479-3.117-4.208-5.72-4.208c-2.593,0-4.881,1.653-5.694,4.114
					C54.94,110.924,55.133,111.307,55.488,111.425z"/>
				<path style="fill:#B3D2E6;" d="M36.078,95.156c0.354,0.117,0.738-0.076,0.855-0.43c0.629-1.905,2.401-3.185,4.408-3.185
					c2.029,0,3.856,1.355,4.443,3.294c0.002,0.006,0.006,0.01,0.008,0.015c0.814,2.456,3.1,4.106,5.691,4.106
					c2.644,0,4.934-1.689,5.72-4.207c0.003-0.009,0.011-0.016,0.014-0.025c0.629-1.905,2.401-3.184,4.408-3.184
					c2.029,0,3.855,1.355,4.443,3.294c0.002,0.005,0.006,0.009,0.008,0.015c0.814,2.457,3.101,4.107,5.691,4.107
					c2.644,0,4.934-1.689,5.72-4.207c0.004-0.009,0.011-0.016,0.014-0.025c0.63-1.905,2.401-3.185,4.408-3.185
					c2.029,0,3.856,1.355,4.443,3.294c0.002,0.005,0.006,0.009,0.008,0.015c0.814,2.457,3.1,4.107,5.691,4.107
					c2.644,0,4.934-1.689,5.72-4.207c0.004-0.009,0.011-0.016,0.014-0.025c0.63-1.905,2.401-3.185,4.408-3.185
					c2.029,0,3.856,1.355,4.443,3.294c0.002,0.006,0.006,0.01,0.008,0.015c0.814,2.456,3.1,4.106,5.691,4.106
					c2.662,0,4.968-1.711,5.739-4.257c0.108-0.358-0.094-0.736-0.452-0.844c-0.065-0.02-0.132-0.03-0.196-0.03
					c-0.291,0-0.559,0.189-0.648,0.482c-0.587,1.94-2.414,3.294-4.443,3.294c-2.008,0-3.779-1.28-4.408-3.184
					c-0.003-0.009-0.01-0.015-0.014-0.024c-0.775-2.48-3.117-4.208-5.72-4.208c-2.586,0-4.868,1.646-5.686,4.096
					c-0.003,0.009-0.01,0.016-0.013,0.026c-0.587,1.94-2.414,3.294-4.443,3.294c-2.007,0-3.779-1.28-4.408-3.184
					c-0.003-0.009-0.01-0.015-0.014-0.024c-0.785-2.518-3.076-4.208-5.72-4.208c-2.586,0-4.868,1.646-5.686,4.096
					c-0.003,0.009-0.01,0.016-0.013,0.026c-0.596,1.97-2.382,3.294-4.443,3.294c-2.007,0-3.779-1.28-4.408-3.184
					c-0.003-0.009-0.01-0.015-0.014-0.024c-0.785-2.518-3.076-4.208-5.72-4.208c-2.586,0-4.867,1.645-5.685,4.094
					c-0.004,0.01-0.011,0.018-0.014,0.028c-0.587,1.94-2.414,3.294-4.443,3.294c-2.008,0-3.779-1.28-4.408-3.184
					c-0.003-0.009-0.01-0.015-0.014-0.024c-0.775-2.479-3.117-4.208-5.72-4.208c-2.593,0-4.881,1.653-5.694,4.114
					C35.53,94.655,35.723,95.038,36.078,95.156z"/>
			</g>
			<g>
				<path style="fill:#B3D2E6;" d="M359.543,451.104c0.354,0.117,0.738-0.076,0.855-0.431c0.63-1.905,2.401-3.185,4.408-3.185
					c2.029,0,3.856,1.355,4.443,3.294c0.002,0.006,0.006,0.01,0.008,0.015c0.814,2.456,3.1,4.107,5.691,4.107
					c2.644,0,4.934-1.689,5.72-4.207c0.004-0.009,0.011-0.016,0.014-0.025c0.629-1.905,2.4-3.184,4.408-3.184
					c2.029,0,3.855,1.355,4.443,3.294c0.002,0.005,0.006,0.009,0.008,0.014c0.814,2.457,3.1,4.107,5.691,4.107
					c2.644,0,4.934-1.689,5.72-4.207c0.004-0.009,0.011-0.016,0.014-0.025c0.629-1.905,2.401-3.185,4.408-3.185
					c2.029,0,3.856,1.355,4.443,3.294c0.002,0.005,0.006,0.009,0.008,0.014c0.814,2.457,3.1,4.107,5.691,4.107
					c2.644,0,4.934-1.689,5.72-4.207c0.004-0.009,0.011-0.016,0.014-0.025c0.63-1.905,2.401-3.185,4.408-3.185
					c2.029,0,3.856,1.355,4.443,3.294c0.002,0.006,0.006,0.01,0.008,0.015c0.814,2.456,3.1,4.107,5.691,4.107
					c2.662,0,4.968-1.711,5.739-4.257c0.109-0.358-0.094-0.736-0.452-0.844c-0.065-0.02-0.132-0.029-0.196-0.029
					c-0.291,0-0.559,0.189-0.648,0.482c-0.587,1.94-2.414,3.294-4.443,3.294c-2.008,0-3.779-1.28-4.408-3.184
					c-0.003-0.009-0.01-0.015-0.014-0.024c-0.775-2.48-3.117-4.208-5.72-4.208c-2.586,0-4.868,1.646-5.686,4.096
					c-0.003,0.009-0.01,0.017-0.013,0.026c-0.587,1.94-2.414,3.294-4.443,3.294c-2.007,0-3.779-1.28-4.408-3.184
					c-0.003-0.009-0.01-0.015-0.014-0.024c-0.786-2.518-3.076-4.208-5.72-4.208c-2.586,0-4.868,1.646-5.686,4.096
					c-0.003,0.009-0.01,0.017-0.013,0.026c-0.596,1.97-2.382,3.294-4.443,3.294c-2.007,0-3.779-1.28-4.408-3.184
					c-0.003-0.009-0.01-0.015-0.014-0.024c-0.785-2.518-3.076-4.208-5.72-4.208c-2.586,0-4.867,1.645-5.685,4.094
					c-0.004,0.01-0.011,0.018-0.014,0.028c-0.587,1.94-2.414,3.294-4.443,3.294c-2.008,0-3.779-1.28-4.408-3.184
					c-0.003-0.009-0.011-0.015-0.014-0.024c-0.775-2.479-3.117-4.208-5.72-4.208c-2.593,0-4.881,1.653-5.694,4.114
					C358.994,450.603,359.188,450.986,359.543,451.104z"/>
				<path style="fill:#B3D2E6;" d="M340.132,434.835c0.354,0.117,0.738-0.076,0.855-0.43c0.63-1.905,2.401-3.185,4.408-3.185
					c2.029,0,3.856,1.355,4.443,3.294c0.002,0.006,0.006,0.01,0.008,0.015c0.814,2.456,3.1,4.107,5.691,4.107
					c2.644,0,4.934-1.69,5.72-4.207c0.004-0.009,0.011-0.016,0.014-0.025c0.629-1.905,2.401-3.184,4.408-3.184
					c2.029,0,3.856,1.355,4.443,3.294c0.002,0.005,0.006,0.009,0.008,0.014c0.814,2.457,3.101,4.108,5.691,4.108
					c2.644,0,4.934-1.69,5.72-4.207c0.004-0.009,0.011-0.016,0.014-0.025c0.629-1.905,2.401-3.185,4.408-3.185
					c2.029,0,3.856,1.355,4.443,3.294c0.002,0.005,0.006,0.009,0.008,0.014c0.815,2.457,3.101,4.108,5.691,4.108
					c2.644,0,4.934-1.689,5.72-4.207c0.004-0.009,0.011-0.016,0.014-0.025c0.629-1.905,2.401-3.185,4.408-3.185
					c2.029,0,3.856,1.355,4.443,3.294c0.002,0.006,0.006,0.01,0.008,0.015c0.814,2.456,3.1,4.107,5.691,4.107
					c2.662,0,4.968-1.711,5.739-4.257c0.108-0.358-0.094-0.736-0.452-0.844c-0.066-0.02-0.132-0.03-0.197-0.03
					c-0.291,0-0.559,0.189-0.648,0.482c-0.587,1.94-2.414,3.294-4.443,3.294c-2.008,0-3.779-1.28-4.408-3.184
					c-0.003-0.009-0.01-0.015-0.014-0.024c-0.775-2.48-3.117-4.208-5.72-4.208c-2.586,0-4.868,1.646-5.686,4.096
					c-0.003,0.009-0.01,0.017-0.013,0.026c-0.587,1.94-2.414,3.294-4.443,3.294c-2.007,0-3.779-1.28-4.408-3.184
					c-0.003-0.009-0.01-0.015-0.014-0.024c-0.786-2.518-3.076-4.208-5.72-4.208c-2.586,0-4.868,1.646-5.686,4.096
					c-0.003,0.009-0.01,0.017-0.013,0.026c-0.596,1.97-2.382,3.294-4.443,3.294c-2.007,0-3.779-1.28-4.408-3.184
					c-0.003-0.009-0.01-0.015-0.014-0.024c-0.785-2.518-3.076-4.208-5.72-4.208c-2.586,0-4.867,1.645-5.685,4.094
					c-0.004,0.01-0.011,0.018-0.014,0.028c-0.587,1.94-2.414,3.294-4.443,3.294c-2.008,0-3.779-1.28-4.408-3.184
					c-0.003-0.009-0.01-0.015-0.014-0.024c-0.775-2.479-3.117-4.208-5.72-4.208c-2.593,0-4.881,1.653-5.694,4.113
					C339.584,434.334,339.777,434.717,340.132,434.835z"/>
			</g>
			<g>
				<path style="fill:#B3D2E6;" d="M628.576,147.93c0.354,0.117,0.738-0.076,0.855-0.431c0.63-1.905,2.401-3.185,4.408-3.185
					c2.029,0,3.856,1.355,4.443,3.294c0.002,0.006,0.006,0.01,0.008,0.015c0.814,2.456,3.1,4.107,5.691,4.107
					c2.644,0,4.934-1.689,5.72-4.207c0.004-0.009,0.011-0.016,0.014-0.025c0.629-1.905,2.401-3.184,4.408-3.184
					c2.029,0,3.855,1.355,4.443,3.294c0.002,0.005,0.006,0.009,0.008,0.014c0.815,2.457,3.101,4.107,5.692,4.107
					c2.644,0,4.934-1.689,5.72-4.207c0.004-0.009,0.011-0.016,0.014-0.025c0.63-1.905,2.401-3.185,4.408-3.185
					c2.029,0,3.856,1.355,4.443,3.294c0.002,0.005,0.006,0.009,0.008,0.014c0.815,2.457,3.101,4.107,5.691,4.107
					c2.644,0,4.934-1.689,5.72-4.207c0.004-0.009,0.011-0.016,0.014-0.025c0.629-1.905,2.401-3.185,4.408-3.185
					c2.029,0,3.856,1.355,4.443,3.294c0.002,0.006,0.006,0.01,0.008,0.015c0.814,2.456,3.1,4.107,5.691,4.107
					c2.662,0,4.968-1.711,5.739-4.257c0.108-0.358-0.094-0.736-0.452-0.844c-0.065-0.02-0.132-0.029-0.196-0.029
					c-0.291,0-0.559,0.189-0.648,0.482c-0.587,1.94-2.414,3.294-4.443,3.294c-2.008,0-3.779-1.28-4.408-3.184
					c-0.003-0.009-0.01-0.015-0.014-0.024c-0.775-2.48-3.117-4.208-5.72-4.208c-2.586,0-4.868,1.646-5.686,4.096
					c-0.003,0.009-0.01,0.017-0.013,0.026c-0.587,1.94-2.414,3.294-4.443,3.294c-2.007,0-3.779-1.28-4.408-3.184
					c-0.003-0.009-0.01-0.015-0.014-0.024c-0.786-2.518-3.076-4.208-5.72-4.208c-2.586,0-4.868,1.646-5.686,4.096
					c-0.003,0.009-0.01,0.017-0.013,0.026c-0.596,1.97-2.382,3.294-4.443,3.294c-2.007,0-3.779-1.28-4.408-3.184
					c-0.003-0.009-0.01-0.015-0.014-0.024c-0.785-2.518-3.076-4.208-5.72-4.208c-2.586,0-4.867,1.645-5.685,4.094
					c-0.004,0.01-0.011,0.018-0.014,0.028c-0.587,1.94-2.414,3.294-4.443,3.294c-2.008,0-3.779-1.28-4.408-3.184
					c-0.003-0.009-0.01-0.015-0.014-0.024c-0.775-2.479-3.117-4.208-5.72-4.208c-2.593,0-4.881,1.653-5.694,4.113
					C628.027,147.429,628.22,147.812,628.576,147.93z"/>
				<path style="fill:#B3D2E6;" d="M609.165,131.661c0.354,0.117,0.738-0.076,0.855-0.43c0.63-1.905,2.401-3.185,4.408-3.185
					c2.029,0,3.856,1.355,4.443,3.294c0.002,0.006,0.006,0.01,0.008,0.015c0.814,2.456,3.1,4.107,5.691,4.107
					c2.644,0,4.934-1.689,5.72-4.207c0.003-0.009,0.011-0.016,0.014-0.025c0.629-1.905,2.401-3.184,4.408-3.184
					c2.029,0,3.855,1.355,4.443,3.294c0.002,0.005,0.006,0.009,0.008,0.014c0.815,2.457,3.101,4.107,5.691,4.107
					c2.644,0,4.934-1.689,5.72-4.207c0.003-0.009,0.011-0.016,0.014-0.025c0.63-1.905,2.401-3.185,4.408-3.185
					c2.029,0,3.856,1.355,4.443,3.294c0.002,0.005,0.006,0.009,0.008,0.014c0.815,2.457,3.101,4.107,5.691,4.107
					c2.644,0,4.934-1.689,5.72-4.207c0.004-0.009,0.011-0.016,0.014-0.025c0.629-1.905,2.401-3.185,4.408-3.185
					c2.029,0,3.856,1.355,4.443,3.294c0.002,0.006,0.006,0.01,0.008,0.015c0.814,2.456,3.1,4.107,5.691,4.107
					c2.662,0,4.968-1.711,5.739-4.257c0.109-0.358-0.094-0.736-0.452-0.844c-0.065-0.02-0.132-0.03-0.196-0.03
					c-0.291,0-0.559,0.189-0.648,0.482c-0.587,1.94-2.414,3.294-4.443,3.294c-2.008,0-3.779-1.28-4.408-3.184
					c-0.003-0.009-0.01-0.015-0.014-0.024c-0.775-2.48-3.117-4.208-5.72-4.208c-2.586,0-4.868,1.646-5.686,4.096
					c-0.003,0.009-0.01,0.017-0.013,0.026c-0.587,1.94-2.414,3.294-4.443,3.294c-2.007,0-3.779-1.28-4.408-3.184
					c-0.003-0.009-0.01-0.015-0.014-0.024c-0.785-2.518-3.076-4.208-5.72-4.208c-2.586,0-4.868,1.646-5.686,4.096
					c-0.003,0.009-0.01,0.017-0.013,0.026c-0.596,1.97-2.382,3.294-4.443,3.294c-2.007,0-3.779-1.28-4.408-3.184
					c-0.003-0.009-0.01-0.015-0.014-0.024c-0.785-2.518-3.076-4.208-5.72-4.208c-2.586,0-4.867,1.645-5.685,4.094
					c-0.004,0.01-0.011,0.018-0.014,0.028c-0.587,1.94-2.414,3.294-4.443,3.294c-2.008,0-3.779-1.28-4.408-3.184
					c-0.003-0.009-0.01-0.015-0.014-0.024c-0.775-2.479-3.117-4.208-5.72-4.208c-2.593,0-4.881,1.653-5.694,4.114
					C608.617,131.16,608.81,131.543,609.165,131.661z"/>
			</g>
		</g>
		<g>
			<path style="fill:#C9E4F5;" d="M483.961,137.814l-0.43-7.857c-0.011-0.195-0.051-0.38-0.089-0.566
				c2.049-0.791,4.047-1.805,5.955-3.061c1.908-1.257,3.628-2.691,5.163-4.262c0.156,0.108,0.31,0.218,0.485,0.305l7.048,3.498
				c1.97,0.978,4.36,0.173,5.338-1.797l5.095-10.268c0.978-1.97,0.173-4.36-1.797-5.338l-7.048-3.498
				c-0.18-0.089-0.366-0.148-0.552-0.208c0.633-4.26,0.394-8.658-0.773-12.904c0.172-0.081,0.345-0.159,0.509-0.266l6.571-4.328
				c1.837-1.21,2.345-3.68,1.135-5.517l-6.305-9.573c-1.21-1.837-3.68-2.345-5.517-1.135l-6.571,4.328
				c-0.163,0.108-0.303,0.236-0.446,0.362c-3.44-2.749-7.386-4.705-11.55-5.805c0.018-0.194,0.038-0.388,0.027-0.589l-0.43-7.857
				c-0.12-2.196-1.998-3.879-4.195-3.759l-11.446,0.627c-2.196,0.12-3.879,1.998-3.759,4.195l0.43,7.857
				c0.011,0.195,0.051,0.38,0.089,0.566c-2.049,0.791-4.047,1.804-5.955,3.061c-1.908,1.257-3.628,2.692-5.164,4.262
				c-0.156-0.108-0.31-0.218-0.485-0.305l-7.048-3.498c-1.97-0.978-4.36-0.173-5.338,1.797l-5.095,10.268
				c-0.978,1.97-0.173,4.361,1.797,5.338l7.048,3.498c0.18,0.089,0.366,0.148,0.551,0.208c-0.633,4.261-0.394,8.658,0.773,12.904
				c-0.172,0.081-0.345,0.159-0.509,0.266l-6.571,4.328c-1.837,1.21-2.345,3.68-1.135,5.517l6.305,9.573
				c1.21,1.837,3.68,2.345,5.517,1.135l6.571-4.328c0.163-0.108,0.303-0.236,0.445-0.362c3.441,2.749,7.386,4.705,11.551,5.805
				c-0.018,0.194-0.038,0.388-0.027,0.589l0.43,7.857c0.12,2.196,1.998,3.879,4.195,3.759l11.446-0.627
				C482.398,141.888,484.081,140.01,483.961,137.814z M456.96,110.196c-5.569-8.455-3.221-19.863,5.234-25.432
				c8.454-5.569,19.863-3.221,25.432,5.234c5.569,8.454,3.221,19.863-5.233,25.432C473.937,120.998,462.528,118.65,456.96,110.196z"
				/>
			<path style="fill:#C9E4F5;" d="M506.63,188.19l2.643-5.016c0.066-0.124,0.109-0.254,0.155-0.383
				c1.56,0.27,3.17,0.383,4.814,0.313c1.645-0.07,3.239-0.32,4.77-0.723c0.057,0.124,0.111,0.25,0.187,0.368l3.062,4.772
				c0.856,1.334,2.631,1.722,3.965,0.866l6.952-4.461c1.334-0.856,1.722-2.631,0.866-3.965l-3.062-4.772
				c-0.078-0.122-0.172-0.227-0.264-0.333c1.969-2.399,3.45-5.206,4.301-8.263c0.136,0.014,0.272,0.03,0.413,0.024l5.665-0.242
				c1.583-0.068,2.812-1.406,2.745-2.99l-0.353-8.252c-0.068-1.584-1.406-2.812-2.99-2.745l-5.665,0.242
				c-0.141,0.006-0.275,0.034-0.41,0.059c-1.109-2.973-2.823-5.643-4.99-7.865c0.083-0.113,0.167-0.226,0.235-0.354l2.643-5.016
				c0.739-1.402,0.201-3.138-1.201-3.877l-7.307-3.851c-1.402-0.739-3.138-0.201-3.877,1.201l-2.643,5.016
				c-0.066,0.125-0.109,0.254-0.155,0.383c-1.56-0.27-3.17-0.383-4.814-0.313c-1.645,0.07-3.239,0.321-4.77,0.723
				c-0.057-0.124-0.111-0.25-0.187-0.368l-3.062-4.772c-0.856-1.334-2.631-1.722-3.965-0.866l-6.952,4.46
				c-1.334,0.856-1.722,2.631-0.866,3.965l3.062,4.772c0.078,0.122,0.172,0.227,0.264,0.332c-1.969,2.399-3.449,5.206-4.301,8.263
				c-0.136-0.014-0.272-0.03-0.413-0.024l-5.665,0.242c-1.583,0.068-2.813,1.406-2.745,2.99l0.353,8.252
				c0.068,1.583,1.406,2.812,2.99,2.745l5.665-0.242c0.141-0.006,0.275-0.034,0.409-0.059c1.109,2.973,2.823,5.643,4.99,7.866
				c-0.083,0.113-0.167,0.226-0.235,0.354l-2.643,5.016c-0.739,1.402-0.201,3.138,1.201,3.877l7.307,3.851
				C504.156,190.13,505.891,189.592,506.63,188.19z M500.166,161.12c-0.312-7.288,5.364-13.471,12.652-13.783
				c7.288-0.312,13.471,5.364,13.783,12.652c0.312,7.288-5.364,13.471-12.652,13.783
				C506.661,174.083,500.478,168.408,500.166,161.12z"/>
		</g>
		<g>
			<g>
				<path style="fill:#B3D2E6;" d="M81.658,170.3h-3.646v-3.646c0-1.265-1.025-2.29-2.29-2.29s-2.29,1.025-2.29,2.29v3.646h-3.646
					c-1.265,0-2.29,1.025-2.29,2.29s1.025,2.29,2.29,2.29h3.646v3.646c0,1.265,1.025,2.29,2.29,2.29s2.29-1.025,2.29-2.29v-3.646
					h3.646c1.265,0,2.29-1.025,2.29-2.29S82.923,170.3,81.658,170.3z"/>
			</g>
			<g>
				<path style="fill:#B3D2E6;" d="M46.712,155.153c-1.935,0-3.508-1.573-3.508-3.508v-4.289h-4.289
					c-1.935,0-3.508-1.573-3.508-3.508c0-1.935,1.573-3.509,3.508-3.509h4.289v-4.288c0-1.935,1.573-3.509,3.508-3.509
					c1.935,0,3.509,1.574,3.509,3.509v4.288h4.289c1.935,0,3.508,1.574,3.508,3.509c0,1.934-1.573,3.508-3.508,3.508h-4.289v4.289
					C50.221,153.58,48.647,155.153,46.712,155.153z M38.915,141.34c-1.383,0-2.508,1.125-2.508,2.509
					c0,1.383,1.125,2.508,2.508,2.508h5.289v5.289c0,1.383,1.125,2.508,2.508,2.508c1.384,0,2.509-1.125,2.509-2.508v-5.289h5.289
					c1.383,0,2.508-1.125,2.508-2.508c0-1.384-1.125-2.509-2.508-2.509h-5.289v-5.288c0-1.384-1.125-2.509-2.509-2.509
					c-1.383,0-2.508,1.125-2.508,2.509v5.288H38.915z"/>
			</g>
			<g>
				<path style="fill:#B3D2E6;" d="M409.42,78.274c-2.5,0-4.534-2.033-4.534-4.533V67.82h-5.92c-2.5,0-4.534-2.033-4.534-4.533
					s2.034-4.533,4.534-4.533h5.92v-5.921c0-2.5,2.034-4.533,4.534-4.533s4.533,2.033,4.533,4.533v5.921h5.921
					c2.5,0,4.533,2.033,4.533,4.533s-2.033,4.533-4.533,4.533h-5.921v5.921C413.953,76.24,411.92,78.274,409.42,78.274z
					 M398.966,59.753c-1.949,0-3.534,1.585-3.534,3.533c0,1.948,1.585,3.533,3.534,3.533h6.92v6.921
					c0,1.948,1.585,3.533,3.534,3.533c1.948,0,3.533-1.585,3.533-3.533V66.82h6.921c1.948,0,3.533-1.585,3.533-3.533
					c0-1.948-1.585-3.533-3.533-3.533h-6.921v-6.921c0-1.948-1.585-3.533-3.533-3.533c-1.949,0-3.534,1.585-3.534,3.533v6.921
					H398.966z"/>
			</g>
			<g>
				<path style="fill:#B3D2E6;" d="M675.217,165.937h5.203v-5.203c0-1.805,1.463-3.269,3.269-3.269c1.805,0,3.269,1.463,3.269,3.269
					v5.203h5.203c1.805,0,3.269,1.463,3.269,3.268c0,1.805-1.463,3.269-3.269,3.269h-5.203v5.203c0,1.805-1.463,3.269-3.269,3.269
					c-1.805,0-3.269-1.463-3.269-3.269v-5.203h-5.203c-1.805,0-3.268-1.463-3.268-3.269
					C671.948,167.4,673.412,165.937,675.217,165.937z"/>
			</g>
			<g>
				<path style="fill:#B3D2E6;" d="M705.343,205.628c-1.612,0-2.925-1.313-2.925-2.925v-3.684h-3.684
					c-1.612,0-2.925-1.313-2.925-2.925c0-1.612,1.313-2.925,2.925-2.925h3.684v-3.685c0-1.612,1.313-2.925,2.925-2.925
					s2.925,1.313,2.925,2.925v3.685h3.685c1.612,0,2.925,1.313,2.925,2.925c0,1.612-1.313,2.925-2.925,2.925h-3.685v3.684
					C708.268,204.316,706.955,205.628,705.343,205.628z M698.734,193.92c-1.199,0-2.175,0.975-2.175,2.175
					c0,1.199,0.976,2.175,2.175,2.175h4.434v4.434c0,1.199,0.976,2.175,2.175,2.175c1.199,0,2.175-0.976,2.175-2.175v-4.434h4.435
					c1.199,0,2.175-0.976,2.175-2.175c0-1.199-0.976-2.175-2.175-2.175h-4.435v-4.435c0-1.199-0.976-2.175-2.175-2.175
					c-1.199,0-2.175,0.976-2.175,2.175v4.435H698.734z"/>
			</g>
		</g>
	</g>
</g>
<g id="TEXTS">
	<g>
		
			<text transform="matrix(1 0 0 1 269.1421 250.4202)" style="fill:#343096; font-family:'TaiHeritagePro-Bold'; font-size:44.8517px;">english</text>
	</g>
	<g>
		<text transform="matrix(1 0 0 1 311.3958 282.1096)" style="fill:#6E79BE; font-family:'Rubik-Medium'; font-size:31.4461px;">SCHOOL</text>
	</g>
	<g>
		<g>
			<text transform="matrix(1 0 0 1 120.3127 165.7157)" style="fill:#FFFFFF; font-family:'Rubik-Medium'; font-size:30.4081px;">?</text>
		</g>
		<g>
			<text transform="matrix(1 0 0 1 198.0569 184.5001)" style="fill:#FFFFFF; font-family:'Rubik-Medium'; font-size:30.4081px;">...</text>
		</g>
	</g>
	<g>
		<g>
			<text transform="matrix(1 0 0 1 288.7874 48.799)" style="fill:#6E79BE; font-family:'Rubik-Regular'; font-size:18px;">Translate</text>
		</g>
		<g>
			<text transform="matrix(1 0 0 1 225.6279 426.2448)" style="fill:#6E79BE; font-family:'Rubik-Regular'; font-size:18px;">Read</text>
		</g>
		<g>
			<text transform="matrix(1 0 0 1 171.9729 135.9178)" style="fill:#6E79BE; font-family:'Rubik-Regular'; font-size:18px;">Speak</text>
		</g>
		<g>
			<text transform="matrix(1 0 0 1 565.0364 156.1145)" style="fill:#6E79BE; font-family:'Rubik-Regular'; font-size:18px;">Listen</text>
		</g>
	</g>
	<g>
		<text transform="matrix(1 0 0 1 540.0984 344.9641)" style="fill:#4B47B3; font-family:'Rubik-Medium'; font-size:114.4772px;">A</text>
		<g>
			<text transform="matrix(1 0 0 1 532.6169 344.9641)" style="fill:#6E79BE; font-family:'Rubik-Medium'; font-size:114.4772px;">A</text>
		</g>
	</g>
</g>
</svg>
